<?xml version="1.0" encoding="utf-8"?>
<!-- Generator: Adobe Illustrator 24.0.0, SVG Export Plug-In . SVG Version: 6.00 Build 0)  -->
<svg version="1.1" id="Layer_1" xmlns="http://www.w3.org/2000/svg" xmlns:xlink="http://www.w3.org/1999/xlink" x="0px" y="0px"
	 viewBox="0 0 226.1 30.8" style="enable-background:new 0 0 226.1 30.8;" xml:space="preserve">
<style type="text/css">
	.st0{fill:url(#XMLID_2_);}
	.st1{fill:url(#XMLID_3_);}
	.st2{fill:url(#XMLID_4_);}
	.st3{fill:url(#XMLID_5_);}
	.st4{clip-path:url(#XMLID_6_);}
	.st5{fill:#2A3C46;}
	.st6{fill:url(#XMLID_7_);}
	.st7{fill:url(#XMLID_8_);}
	.st8{fill:url(#XMLID_9_);}
	.st9{fill:url(#XMLID_10_);}
	.st10{fill:url(#XMLID_11_);}
	.st11{fill:url(#XMLID_12_);}
	.st12{fill:url(#XMLID_13_);}
	.st13{fill:url(#XMLID_14_);}
	.st14{fill:url(#XMLID_15_);}
	.st15{fill:url(#XMLID_16_);}
	.st16{fill:url(#XMLID_17_);}
	.st17{fill:url(#XMLID_18_);}
</style>
<g>
	<g id="XMLID_831_">
		<g id="XMLID_828_">
			<linearGradient id="XMLID_2_" gradientUnits="userSpaceOnUse" x1="25.6911" y1="18.2553" x2="42.8151" y2="18.2553">
				<stop  offset="0" style="stop-color:#FFF33B"/>
				<stop  offset="4.010540e-02" style="stop-color:#FEE72E"/>
				<stop  offset="0.1171" style="stop-color:#FED51B"/>
				<stop  offset="0.1964" style="stop-color:#FDCA10"/>
				<stop  offset="0.2809" style="stop-color:#FDC70C"/>
				<stop  offset="0.6685" style="stop-color:#F3903F"/>
				<stop  offset="0.8876" style="stop-color:#ED683C"/>
				<stop  offset="1" style="stop-color:#E93E3A"/>
			</linearGradient>
			<path id="XMLID_960_" class="st0" d="M30.7,26.5c-1.7,1.4-3.3,2.8-5,4.2c0-8.4,0-16.7,0-25c4.4,0,16.3,0,17.1,0
				c0,0-4.7,4.9-4.7,4.9s-7.2,0.1-7.4,0.1c0,1.7,0,3.3,0,5c4,0,8.1,0,12.1,0c-0.1,0.1-3.9,5-3.9,5s-8,0.1-8.2,0.1
				C30.7,22.7,30.7,24.6,30.7,26.5z"/>
			<g id="XMLID_823_">
				<linearGradient id="XMLID_3_" gradientUnits="userSpaceOnUse" x1="12.5557" y1="20.5063" x2="12.5557" y2="16.0308">
					<stop  offset="0" style="stop-color:#CCE0F4"/>
					<stop  offset="6.405089e-02" style="stop-color:#C3DCF2"/>
					<stop  offset="0.1706" style="stop-color:#A9D2EE"/>
					<stop  offset="0.3066" style="stop-color:#80C2E7"/>
					<stop  offset="0.4649" style="stop-color:#47ACDE"/>
					<stop  offset="0.5674" style="stop-color:#1E9CD7"/>
					<stop  offset="0.8652" style="stop-color:#0075BE"/>
					<stop  offset="0.9944" style="stop-color:#005B97"/>
				</linearGradient>
				<path id="XMLID_937_" class="st1" d="M14.8,18.3c0,1.2-1,2.2-2.2,2.2c-1.3,0-2.2-0.9-2.2-2.2c0-1.3,1-2.2,2.3-2.2
					C13.7,16,14.9,17,14.8,18.3z"/>
				<linearGradient id="XMLID_4_" gradientUnits="userSpaceOnUse" x1="12.5343" y1="30.8468" x2="12.5343" y2="5.7172">
					<stop  offset="0" style="stop-color:#CCE0F4"/>
					<stop  offset="6.405089e-02" style="stop-color:#C3DCF2"/>
					<stop  offset="0.1706" style="stop-color:#A9D2EE"/>
					<stop  offset="0.3066" style="stop-color:#80C2E7"/>
					<stop  offset="0.4649" style="stop-color:#47ACDE"/>
					<stop  offset="0.5674" style="stop-color:#1E9CD7"/>
					<stop  offset="0.8652" style="stop-color:#0075BE"/>
					<stop  offset="0.9944" style="stop-color:#005B97"/>
				</linearGradient>
				<path id="XMLID_840_" class="st2" d="M20,5.7c0,0.9,0,1.6,0,2.4c-2.9-2.1-6-2.8-9.5-2.3C7,6.4,4.4,8.2,2.3,11
					c-3.2,4.2-3.1,10.7,0.3,14.9c1.8,2.3,4,3.9,6.9,4.6c3.8,0.9,7.3,0.3,10.5-2c0,0.3,0,0.5,0,0.7c1.7,0.6,3.4,1.1,5,1.7
					c0-8.4,0-16.7,0-25.1C23.4,5.7,21.8,5.7,20,5.7z M21.1,19.8c0.9,0.4,0.9,0.4,0.1,2.2c-0.7,1.6-0.7,1.6-1.4,1.3
					c-1.4-0.7-3,0.8-2.3,2.2c0.4,0.8,0.3,0.7-1.4,1.5c-1.7,0.7-1.6,0.8-1.9-0.1c-0.5-1.4-2.5-1.5-3.1-0.1c-0.5,1-0.4,0.9-2.2,0.2
					c-1.6-0.7-1.6-0.6-1.2-1.5c0.6-1.4-0.8-2.8-2.2-2.2c-0.9,0.4-0.8,0.4-1.6-1.5c-0.6-1.6-0.7-1.6,0.1-1.9c1.6-0.6,1.4-2.8-0.1-3.2
					c-0.7-0.2-0.6-0.2,0-1.9c0.7-1.8,0.8-1.9,1.3-1.5c0.7,0.4,1.5,0.3,2.1-0.3c0.6-0.6,0.6-1.4,0.3-2.1c-0.3-0.6-0.3-0.6,1.4-1.3
					c1.8-0.8,1.8-0.8,2-0.1c0.5,1.7,2.8,1.7,3.3,0c0.2-0.6,0.2-0.6,2,0.1c1.7,0.7,1.8,0.7,1.5,1.3c-0.4,0.7-0.3,1.5,0.2,2.1
					c0.5,0.5,1.3,0.6,2,0.3c0.7-0.4,0.7-0.3,1.4,1.4c0.7,1.8,0.7,1.7,0,2C19.8,17.1,19.7,19.2,21.1,19.8z"/>
			</g>
		</g>
	</g>
	<g id="XMLID_827_">
		<g id="XMLID_889_">
			<g id="XMLID_897_">
				<linearGradient id="XMLID_5_" gradientUnits="userSpaceOnUse" x1="218.7455" y1="21.4678" x2="218.7455" y2="4.145233e-02">
					<stop  offset="0" style="stop-color:#FF7543"/>
					<stop  offset="0.6072" style="stop-color:#FFD01F"/>
					<stop  offset="1" style="stop-color:#FFF900"/>
				</linearGradient>
				<path id="XMLID_898_" class="st3" d="M225.1,10.9c0.4,1-0.2,2.2-0.2,2.2C225,11,223,9.9,224,6.4c0.4-1.4-0.4-2.2-0.4-2.2
					c0.2,0.9-0.3,1.2-1.1,2.5s-0.4,2.6-0.4,2.6c-1.3-1.4-0.7-3.4-0.4-4.6s-0.1-1.9-0.1-1.9c0.2,1.3-1.8,3.3-3.1,1
					c-1.4-2.3,0.4-3.8,0.4-3.8c-2.2,0-2.7,2.8-2.6,4.5c0.2,2.7-1.2,3.1-1.2,3.1c0.2-0.9,0-1.8-0.5-2.4c-0.4-0.5-1-0.7-1-0.7
					s1.3,1.6-0.6,5.2c-1,1.9,0.1,3.8,0.1,3.8c-0.9-0.7-1.7,0-1.7,0c1.3,0.9,0.4,3.2,1.9,5.2c0.9,1.2,1.8,1.9,2.8,2.3
					c-1.6-1-2.6-2.7-2.6-4.7c0-3.1,2.5-5.6,5.6-5.6s5.6,2.5,5.6,5.6c0,2-1.1,3.8-2.8,4.8c2.2-0.8,3.3-2.5,3.7-3.6
					C227.1,12.9,225.1,10.9,225.1,10.9z"/>
			</g>
			<g id="XMLID_890_">
				<defs>
					<path id="XMLID_892_" d="M225.1,10.9c0.4,1-0.2,2.2-0.2,2.2c0.1-2.2-1.9-3.3-0.9-6.7c0.4-1.4-0.4-2.2-0.4-2.2
						c0.2,0.9-0.3,1.2-1.1,2.5s-0.4,2.6-0.4,2.6c-1.3-1.4-0.7-3.4-0.4-4.6s-0.1-1.9-0.1-1.9c0.2,1.3-1.8,3.3-3.1,1
						c-1.4-2.3,0.4-3.8,0.4-3.8c-2.2,0-2.7,2.8-2.6,4.5c0.2,2.7-1.2,3.1-1.2,3.1c0.2-0.9,0-1.8-0.5-2.4c-0.4-0.5-1-0.7-1-0.7
						s1.3,1.6-0.6,5.2c-1,1.9,0.1,3.8,0.1,3.8c-0.9-0.7-1.7,0-1.7,0c1.3,0.9,0.4,3.2,1.9,5.2c0.9,1.2,1.8,1.9,2.8,2.3
						c-1.6-1-2.6-2.7-2.6-4.7c0-3.1,2.5-5.6,5.6-5.6s5.6,2.5,5.6,5.6c0,2-1.1,3.8-2.8,4.8c2.2-0.8,3.3-2.5,3.7-3.6
						C227.1,12.9,225.1,10.9,225.1,10.9z"/>
				</defs>
				<clipPath id="XMLID_6_">
					<use xlink:href="#XMLID_892_"  style="overflow:visible;"/>
				</clipPath>
				<g id="XMLID_895_" class="st4">
					<path id="XMLID_896_" class="st5" d="M225,12.6c0.4,1-0.2,2.2-0.2,2.2c0.1-2.2-1.9-3.3-0.9-6.7c0.4-1.4-0.4-2.2-0.4-2.2
						c0.2,0.9-0.3,1.2-1.1,2.5s-0.4,2.6-0.4,2.6c-1.3-1.4-0.7-3.4-0.4-4.6c0.4-1.2-0.1-1.9-0.1-1.9c0.2,1.3-1.8,3.3-3.1,1
						c-1.4-2.3,0.4-3.8,0.4-3.8c-2.2,0-2.7,2.8-2.6,4.5c0.2,2.7-1.2,3.1-1.2,3.1c0.2-0.9,0-1.8-0.5-2.4c-0.4-0.5-1-0.7-1-0.7
						s1.3,1.6-0.6,5.2c-1,1.9,0.1,3.8,0.1,3.8c-0.9-0.7-1.7,0-1.7,0c1.3,0.9,0.4,3.2,1.9,5.2c0.9,1.2,1.8,1.9,2.8,2.3
						c-1.6-1-2.6-2.7-2.6-4.7c0-3.1,2.5-5.6,5.6-5.6c3.1,0,5.6,2.5,5.6,5.6c0,2-1.1,3.8-2.8,4.8c2.2-0.8,3.3-2.5,3.7-3.6
						C227,14.6,225,12.6,225,12.6z"/>
				</g>
				<g id="XMLID_893_" class="st4">
					<path id="XMLID_894_" class="st5" d="M213.3,15.5c-0.4,0.9,0.2,2.2,0.2,2.2c-0.1-2.1,1.8-3.2,0.9-6.5C214,9.7,214.8,9,214.8,9
						c-0.2,0.9,0.3,1.2,1,2.4c0.7,1.2,0.4,2.5,0.4,2.5c1.3-1.4,0.7-3.3,0.3-4.4c-0.4-1.1,0.1-1.8,0.1-1.8c-0.2,1.3,1.7,3.2,3,1
						c1.3-2.2-0.3-3.6-0.3-3.6c2.1,0,2.6,2.7,2.5,4.3c-0.2,2.6,1.1,3,1.1,3c-0.2-0.9,0-1.8,0.5-2.3c0.4-0.5,1-0.7,1-0.7
						s-1.3,1.6,0.6,5c1,1.8-0.1,3.6-0.1,3.6c0.9-0.7,1.6,0,1.6,0c-1.2,0.9-0.4,3.1-1.8,5c-0.8,1.2-1.8,1.8-2.7,2.2
						c1.5-1-7.2-0.8-5.6,0.1c-2.1-0.8-3.2-2.4-3.5-3.5C211.3,17.4,213.3,15.5,213.3,15.5z"/>
				</g>
			</g>
		</g>
		<g id="XMLID_854_">
			<g id="XMLID_852_">
				<linearGradient id="XMLID_7_" gradientUnits="userSpaceOnUse" x1="50.3208" y1="30.6497" x2="50.3208" y2="5.7321">
					<stop  offset="0" style="stop-color:#CCE0F4"/>
					<stop  offset="6.405089e-02" style="stop-color:#C3DCF2"/>
					<stop  offset="0.1706" style="stop-color:#A9D2EE"/>
					<stop  offset="0.3066" style="stop-color:#80C2E7"/>
					<stop  offset="0.4649" style="stop-color:#47ACDE"/>
					<stop  offset="0.5674" style="stop-color:#1E9CD7"/>
					<stop  offset="0.8652" style="stop-color:#0075BE"/>
					<stop  offset="0.9944" style="stop-color:#005B97"/>
				</linearGradient>
				<path id="XMLID_856_" class="st6" d="M57.8,30.6h-3.5l-0.9-4.7h-6.1l-0.9,4.7h-3.5l5.5-24.9h3.9L57.8,30.6z M52.7,22.5
					l-2.3-11.7L48,22.5H52.7z"/>
				<linearGradient id="XMLID_8_" gradientUnits="userSpaceOnUse" x1="66.0254" y1="30.7004" x2="66.0254" y2="10.7527">
					<stop  offset="0" style="stop-color:#CCE0F4"/>
					<stop  offset="6.405089e-02" style="stop-color:#C3DCF2"/>
					<stop  offset="0.1706" style="stop-color:#A9D2EE"/>
					<stop  offset="0.3066" style="stop-color:#80C2E7"/>
					<stop  offset="0.4649" style="stop-color:#47ACDE"/>
					<stop  offset="0.5674" style="stop-color:#1E9CD7"/>
					<stop  offset="0.8652" style="stop-color:#0075BE"/>
					<stop  offset="0.9944" style="stop-color:#005B97"/>
				</linearGradient>
				<path id="XMLID_859_" class="st7" d="M72.2,30.7h-3.4v-0.5c-0.7,0.3-1.5,0.5-2.3,0.5h-0.9c-1.6,0-2.9-0.5-4-1.6
					c-1.1-1.1-1.7-2.4-1.7-4l0-14.3h3.4V25c0,0.6,0.2,1.2,0.7,1.6c0.4,0.4,1,0.7,1.6,0.7h1c0.6,0,1.1-0.2,1.5-0.6
					c0.4-0.4,0.7-0.8,0.8-1.4V10.8h3.4V30.7z"/>
				<linearGradient id="XMLID_9_" gradientUnits="userSpaceOnUse" x1="79.0167" y1="30.7004" x2="79.0167" y2="7.3887">
					<stop  offset="0" style="stop-color:#CCE0F4"/>
					<stop  offset="6.405089e-02" style="stop-color:#C3DCF2"/>
					<stop  offset="0.1706" style="stop-color:#A9D2EE"/>
					<stop  offset="0.3066" style="stop-color:#80C2E7"/>
					<stop  offset="0.4649" style="stop-color:#47ACDE"/>
					<stop  offset="0.5674" style="stop-color:#1E9CD7"/>
					<stop  offset="0.8652" style="stop-color:#0075BE"/>
					<stop  offset="0.9944" style="stop-color:#005B97"/>
				</linearGradient>
				<path id="XMLID_861_" class="st8" d="M83.8,30.7H82c-1.6,0-2.9-0.6-4-1.7c-1.1-1.1-1.7-2.5-1.7-4v-7.4h-2.1v-3.4h2.1V7.4h3.4
					v6.8h4.1v3.4h-4.1V25c0,0.6,0.2,1.2,0.7,1.6c0.4,0.4,1,0.7,1.6,0.7h1.8V30.7z"/>
				<linearGradient id="XMLID_10_" gradientUnits="userSpaceOnUse" x1="103.6977" y1="30.7004" x2="103.6977" y2="10.7358">
					<stop  offset="0" style="stop-color:#CCE0F4"/>
					<stop  offset="6.405089e-02" style="stop-color:#C3DCF2"/>
					<stop  offset="0.1706" style="stop-color:#A9D2EE"/>
					<stop  offset="0.3066" style="stop-color:#80C2E7"/>
					<stop  offset="0.4649" style="stop-color:#47ACDE"/>
					<stop  offset="0.5674" style="stop-color:#1E9CD7"/>
					<stop  offset="0.8652" style="stop-color:#0075BE"/>
					<stop  offset="0.9944" style="stop-color:#005B97"/>
				</linearGradient>
				<path id="XMLID_863_" class="st9" d="M121.6,30.7h-3.4V16.4c0-0.6-0.2-1.2-0.7-1.6c-0.4-0.4-1-0.7-1.6-0.7h-1
					c-0.6,0-1.1,0.2-1.5,0.6c-0.4,0.4-0.7,0.8-0.8,1.4c0,0,0,0.1,0,0.1c0,0,0,4.9,0,14.4h-3.4V16.4c0-0.6-0.2-1.2-0.7-1.6
					c-0.4-0.4-1-0.7-1.6-0.7h-1c-0.3,0-0.6,0-0.8,0.1c-0.8,0.5-1.7,1.5-2.8,3.3c-1,1.7-2,3.5-2.8,5.3c-0.9,1.8-1.4,3.2-1.7,4
					c-0.4,1.1-1.1,2-2.1,2.7c-1,0.7-2.1,1.1-3.3,1.1h-0.9c-1.6,0-2.9-0.6-4-1.7c-1.1-1.1-1.7-2.5-1.7-4v-8.6c0-1.6,0.6-2.9,1.7-4
					c1.1-1.1,2.4-1.6,4-1.6h0.9c1.6,0,2.9,0.6,4,1.7c1.1,1.1,1.6,2.4,1.7,4l-0.1,0.4l-3.3,6.6v-7c0-0.6-0.2-1.2-0.7-1.6
					c-0.4-0.4-1-0.7-1.6-0.7h-1c-0.6,0-1.2,0.2-1.6,0.7c-0.4,0.4-0.7,1-0.7,1.6V25c0,0.6,0.2,1.2,0.7,1.6c0.4,0.5,1,0.7,1.6,0.7h1
					c0.4,0,0.7-0.1,1-0.2c0.5-0.3,1.1-1.1,1.8-2.3c0.7-1.2,1.3-2.6,2.1-4.1c0.9-2,1.9-3.8,2.9-5.6l0.1-4.3h3.4v0.5
					c0.7-0.3,1.5-0.5,2.3-0.5h0.9c1.6,0,2.9,0.6,4,1.6c1.1-1.1,2.5-1.6,4-1.6h0.9c1.6,0,2.9,0.6,4,1.7c1.1,1.1,1.6,2.4,1.7,4V30.7z
					 M103.8,30.7h-3.4l0-6.7h3.4L103.8,30.7z"/>
				<linearGradient id="XMLID_11_" gradientUnits="userSpaceOnUse" x1="129.7142" y1="30.6497" x2="129.7142" y2="10.7358">
					<stop  offset="0" style="stop-color:#CCE0F4"/>
					<stop  offset="6.405089e-02" style="stop-color:#C3DCF2"/>
					<stop  offset="0.1706" style="stop-color:#A9D2EE"/>
					<stop  offset="0.3066" style="stop-color:#80C2E7"/>
					<stop  offset="0.4649" style="stop-color:#47ACDE"/>
					<stop  offset="0.5674" style="stop-color:#1E9CD7"/>
					<stop  offset="0.8652" style="stop-color:#0075BE"/>
					<stop  offset="0.9944" style="stop-color:#005B97"/>
				</linearGradient>
				<path id="XMLID_866_" class="st10" d="M135.9,30.6h-3.4v-0.7c-0.8,0.5-1.9,0.7-3.2,0.7c-1.1,0-2.1-0.3-3-0.8
					c-0.9-0.5-1.5-1.3-2-2.2c-0.5-0.9-0.7-1.9-0.7-3v-0.3c0-1.4,0.3-2.6,0.8-3.5c1-1.9,2.8-3.2,5.4-3.9l2.7-0.7
					c0-0.7-0.2-1.2-0.6-1.6c-0.4-0.3-0.8-0.5-1.3-0.5c-0.4,0-0.8,0.1-1.2,0.3c-0.4,0.2-0.7,0.5-1,0.8c-0.3,0.4-0.4,0.8-0.4,1.2h-3.4
					c0-1.1,0.3-2,0.8-2.9c0.5-0.9,1.2-1.6,2.1-2.1c0.9-0.5,1.8-0.8,2.9-0.8h0.9c0.9,0,1.7,0.2,2.3,0.5c0.6,0.3,1.1,0.7,1.5,1.2
					c0.4,0.5,0.6,1,0.8,1.6c0.2,0.6,0.2,1.1,0.2,1.6V30.6z M129.2,27.2c0.8,0,1.5-0.2,2-0.7c0.5-0.4,0.8-1,1-1.7
					c0.2-0.7,0.3-1.4,0.3-2.1v-3.1c-0.7,0.1-1.4,0.3-2.3,0.6c-2.1,0.7-3.2,2.1-3.3,4.3c0,0.7,0.2,1.3,0.6,1.9
					C127.9,27,128.5,27.2,129.2,27.2z"/>
				<linearGradient id="XMLID_12_" gradientUnits="userSpaceOnUse" x1="142.8154" y1="30.7004" x2="142.8154" y2="7.3887">
					<stop  offset="0" style="stop-color:#CCE0F4"/>
					<stop  offset="6.405089e-02" style="stop-color:#C3DCF2"/>
					<stop  offset="0.1706" style="stop-color:#A9D2EE"/>
					<stop  offset="0.3066" style="stop-color:#80C2E7"/>
					<stop  offset="0.4649" style="stop-color:#47ACDE"/>
					<stop  offset="0.5674" style="stop-color:#1E9CD7"/>
					<stop  offset="0.8652" style="stop-color:#0075BE"/>
					<stop  offset="0.9944" style="stop-color:#005B97"/>
				</linearGradient>
				<path id="XMLID_869_" class="st11" d="M147.6,30.7h-1.8c-1.6,0-2.9-0.6-4-1.7c-1.1-1.1-1.7-2.5-1.7-4v-7.4H138v-3.4h2.1V7.4h3.4
					v6.8h4.1v3.4h-4.1V25c0,0.6,0.2,1.2,0.7,1.6c0.4,0.4,1,0.7,1.6,0.7h1.8V30.7z"/>
			</g>
			<linearGradient id="XMLID_13_" gradientUnits="userSpaceOnUse" x1="151.3523" y1="30.6835" x2="151.3523" y2="5.7659">
				<stop  offset="0" style="stop-color:#CCE0F4"/>
				<stop  offset="6.405089e-02" style="stop-color:#C3DCF2"/>
				<stop  offset="0.1706" style="stop-color:#A9D2EE"/>
				<stop  offset="0.3066" style="stop-color:#80C2E7"/>
				<stop  offset="0.4649" style="stop-color:#47ACDE"/>
				<stop  offset="0.5674" style="stop-color:#1E9CD7"/>
				<stop  offset="0.8652" style="stop-color:#0075BE"/>
				<stop  offset="0.9944" style="stop-color:#005B97"/>
			</linearGradient>
			<path id="XMLID_871_" class="st12" d="M153.1,9.2h-3.4V5.8h3.4V9.2z M153.1,30.7h-3.4V10.8h3.4V30.7z"/>
			<linearGradient id="XMLID_14_" gradientUnits="userSpaceOnUse" x1="168.5276" y1="30.7342" x2="168.5276" y2="10.7866">
				<stop  offset="0" style="stop-color:#CCE0F4"/>
				<stop  offset="6.405089e-02" style="stop-color:#C3DCF2"/>
				<stop  offset="0.1706" style="stop-color:#A9D2EE"/>
				<stop  offset="0.3066" style="stop-color:#80C2E7"/>
				<stop  offset="0.4649" style="stop-color:#47ACDE"/>
				<stop  offset="0.5674" style="stop-color:#1E9CD7"/>
				<stop  offset="0.8652" style="stop-color:#0075BE"/>
				<stop  offset="0.9944" style="stop-color:#005B97"/>
			</linearGradient>
			<path id="XMLID_874_" class="st13" d="M181.9,30.7h-3.4V16.5c0-0.6-0.2-1.2-0.7-1.6c-0.4-0.4-1-0.7-1.6-0.7h-1
				c-0.3,0-0.6,0-0.9,0.1c-0.8,0.5-1.7,1.6-2.8,3.3c-1,1.7-2,3.5-2.8,5.3c-0.9,1.8-1.4,3.2-1.7,4c-0.4,1.1-1.1,2-2.1,2.7
				c-1,0.7-2.1,1.1-3.3,1.1h-0.9c-1.6,0-2.9-0.6-4-1.7c-1.1-1.1-1.7-2.5-1.7-4v-8.6c0.1-1.6,0.6-2.9,1.7-4c1.1-1.1,2.4-1.6,4-1.6
				h0.9c1.6,0,2.9,0.5,4,1.6c1.1,1.1,1.7,2.4,1.7,4l-0.1,0.4l-3.4,6.6v-7c0-0.6-0.2-1.2-0.7-1.6c-0.4-0.4-1-0.7-1.6-0.7h-1
				c-0.6,0-1.2,0.2-1.6,0.7c-0.4,0.4-0.7,1-0.7,1.6V25c0,0.6,0.2,1.2,0.7,1.6c0.4,0.4,1,0.7,1.6,0.7h1c0.5,0,0.9-0.1,1.3-0.4
				l0.5-0.6c0.5-0.6,1.1-1.6,1.8-3c0.4-0.9,0.8-1.7,1.3-2.6c0.8-1.7,1.5-3,2-4c0.3-0.5,0.6-1.1,0.9-1.6l0.1-4.3h3.4v0.5
				c0.7-0.3,1.5-0.5,2.3-0.5h0.9c1.6,0,2.9,0.5,4,1.6c1.1,1.1,1.7,2.4,1.7,4V30.7z M173,30.7h-3.4l0-6.7h3.4V30.7z"/>
		</g>
		<g id="XMLID_887_">
			<linearGradient id="XMLID_15_" gradientUnits="userSpaceOnUse" x1="189.3965" y1="5.7152" x2="189.3965" y2="30.6328">
				<stop  offset="0" style="stop-color:#FFF33B"/>
				<stop  offset="4.010540e-02" style="stop-color:#FEE72E"/>
				<stop  offset="0.1171" style="stop-color:#FED51B"/>
				<stop  offset="0.1964" style="stop-color:#FDCA10"/>
				<stop  offset="0.2809" style="stop-color:#FDC70C"/>
				<stop  offset="0.6685" style="stop-color:#F3903F"/>
				<stop  offset="0.8876" style="stop-color:#ED683C"/>
				<stop  offset="1" style="stop-color:#E93E3A"/>
			</linearGradient>
			<path id="XMLID_877_" class="st14" d="M187.3,30.6h-3.4V5.7h11v3.4h-7.6V17h5.3v3.4h-5.3V30.6z"/>
			<linearGradient id="XMLID_16_" gradientUnits="userSpaceOnUse" x1="198.6519" y1="5.7659" x2="198.6519" y2="30.6835">
				<stop  offset="0" style="stop-color:#FFF33B"/>
				<stop  offset="4.010540e-02" style="stop-color:#FEE72E"/>
				<stop  offset="0.1171" style="stop-color:#FED51B"/>
				<stop  offset="0.1964" style="stop-color:#FDCA10"/>
				<stop  offset="0.2809" style="stop-color:#FDC70C"/>
				<stop  offset="0.6685" style="stop-color:#F3903F"/>
				<stop  offset="0.8876" style="stop-color:#ED683C"/>
				<stop  offset="1" style="stop-color:#E93E3A"/>
			</linearGradient>
			<path id="XMLID_879_" class="st15" d="M200.4,9.2h-3.4V5.8h3.4V9.2z M200.4,30.7h-3.4V10.8h3.4V30.7z"/>
			<linearGradient id="XMLID_17_" gradientUnits="userSpaceOnUse" x1="206.6901" y1="10.7358" x2="206.6901" y2="30.6835">
				<stop  offset="0" style="stop-color:#FFF33B"/>
				<stop  offset="4.010540e-02" style="stop-color:#FEE72E"/>
				<stop  offset="0.1171" style="stop-color:#FED51B"/>
				<stop  offset="0.1964" style="stop-color:#FDCA10"/>
				<stop  offset="0.2809" style="stop-color:#FDC70C"/>
				<stop  offset="0.6685" style="stop-color:#F3903F"/>
				<stop  offset="0.8876" style="stop-color:#ED683C"/>
				<stop  offset="1" style="stop-color:#E93E3A"/>
			</linearGradient>
			<path id="XMLID_882_" class="st16" d="M205.8,30.7h-3.4V10.8h3.4v1.8c0.3-0.5,0.7-0.9,1.1-1.2c0.4-0.3,0.8-0.4,1.2-0.5
				c0.4-0.1,0.9-0.1,1.5-0.1l1.4,0v3.4c-0.6,0-1.3,0-1.9,0.1c-0.6,0.1-1.2,0.2-1.7,0.4c-0.5,0.2-0.9,0.6-1.2,1.1
				c-0.3,0.5-0.4,1.2-0.4,2.1V30.7z"/>
			<linearGradient id="XMLID_18_" gradientUnits="userSpaceOnUse" x1="218.5319" y1="10.7358" x2="218.5319" y2="30.6835">
				<stop  offset="0" style="stop-color:#FFF33B"/>
				<stop  offset="4.010540e-02" style="stop-color:#FEE72E"/>
				<stop  offset="0.1171" style="stop-color:#FED51B"/>
				<stop  offset="0.1964" style="stop-color:#FDCA10"/>
				<stop  offset="0.2809" style="stop-color:#FDC70C"/>
				<stop  offset="0.6685" style="stop-color:#F3903F"/>
				<stop  offset="0.8876" style="stop-color:#ED683C"/>
				<stop  offset="1" style="stop-color:#E93E3A"/>
			</linearGradient>
			<path id="XMLID_884_" class="st17" d="M219,30.7h-0.9c-1.6,0-2.9-0.6-4-1.7c-1.1-1.1-1.7-2.5-1.7-4v-8.6c0-1.6,0.6-2.9,1.7-4
				c1.1-1.1,2.4-1.6,4-1.6h0.9c1.6,0,2.9,0.5,4,1.6c1.1,1.1,1.7,2.4,1.7,4v5.7h-8.9V25c0,0.6,0.2,1.2,0.7,1.6c0.4,0.4,1,0.7,1.6,0.7
				h1c0.6,0,1.2-0.2,1.6-0.7c0.4-0.4,0.7-1,0.7-1.6v-1.4h3.4V25c0,1.6-0.6,2.9-1.7,4C221.9,30.1,220.6,30.7,219,30.7z M221.3,18.6
				v-2.2c0-0.6-0.2-1.2-0.7-1.6c-0.4-0.4-1-0.7-1.6-0.7h-1c-0.6,0-1.2,0.2-1.6,0.7c-0.4,0.4-0.7,1-0.7,1.6v2.2H221.3z"/>
		</g>
	</g>
</g>
</svg>
