<?xml version="1.0" encoding="utf-8"?>
<!-- Generator: Adobe Illustrator 24.0.0, SVG Export Plug-In . SVG Version: 6.00 Build 0)  -->
<svg version="1.1" id="Layer_1" xmlns="http://www.w3.org/2000/svg" xmlns:xlink="http://www.w3.org/1999/xlink" x="0px" y="0px"
	 viewBox="0 0 120 49.4" style="enable-background:new 0 0 120 49.4;" xml:space="preserve">
<style type="text/css">
	.st0{fill:url(#XMLID_2_);}
	.st1{fill:url(#XMLID_3_);}
	.st2{fill:url(#XMLID_4_);}
	.st3{fill:url(#XMLID_5_);}
	.st4{clip-path:url(#XMLID_6_);}
	.st5{fill:#2A3C46;}
	.st6{fill:url(#XMLID_7_);}
	.st7{fill:url(#XMLID_8_);}
	.st8{fill:url(#XMLID_9_);}
	.st9{fill:url(#XMLID_10_);}
	.st10{fill:url(#XMLID_11_);}
	.st11{fill:url(#XMLID_12_);}
	.st12{fill:url(#XMLID_13_);}
	.st13{fill:url(#XMLID_14_);}
	.st14{fill:url(#XMLID_15_);}
	.st15{fill:url(#XMLID_16_);}
	.st16{fill:url(#XMLID_17_);}
	.st17{fill:url(#XMLID_18_);}
</style>
<g id="XMLID_831_">
	<g id="XMLID_828_">
		<linearGradient id="XMLID_2_" gradientUnits="userSpaceOnUse" x1="65.6203" y1="16.4632" x2="88.1051" y2="16.4632">
			<stop  offset="0" style="stop-color:#FFF33B"/>
			<stop  offset="4.010540e-02" style="stop-color:#FEE72E"/>
			<stop  offset="0.1171" style="stop-color:#FED51B"/>
			<stop  offset="0.1964" style="stop-color:#FDCA10"/>
			<stop  offset="0.2809" style="stop-color:#FDC70C"/>
			<stop  offset="0.6685" style="stop-color:#F3903F"/>
			<stop  offset="0.8876" style="stop-color:#ED683C"/>
			<stop  offset="1" style="stop-color:#E93E3A"/>
		</linearGradient>
		<path id="XMLID_960_" class="st0" d="M72.2,27.3c-2.2,1.9-4.3,3.7-6.6,5.5c0-11,0-21.9,0-32.8c5.8,0,21.4,0,22.4,0
			c0,0-6.1,6.4-6.1,6.4s-9.5,0.1-9.7,0.1c0,2.2,0,4.3,0,6.6c5.3,0,10.6,0,15.9,0C88,13.4,83,19.7,83,19.7s-10.6,0.1-10.8,0.1
			C72.2,22.3,72.2,24.8,72.2,27.3z"/>
		<g id="XMLID_823_">
			<linearGradient id="XMLID_3_" gradientUnits="userSpaceOnUse" x1="48.373" y1="19.4188" x2="48.373" y2="13.5422">
				<stop  offset="0" style="stop-color:#CCE0F4"/>
				<stop  offset="6.405089e-02" style="stop-color:#C3DCF2"/>
				<stop  offset="0.1706" style="stop-color:#A9D2EE"/>
				<stop  offset="0.3066" style="stop-color:#80C2E7"/>
				<stop  offset="0.4649" style="stop-color:#47ACDE"/>
				<stop  offset="0.5674" style="stop-color:#1E9CD7"/>
				<stop  offset="0.8652" style="stop-color:#0075BE"/>
				<stop  offset="0.9944" style="stop-color:#005B97"/>
			</linearGradient>
			<path id="XMLID_937_" class="st1" d="M51.3,16.5c0,1.6-1.3,2.9-2.9,2.9c-1.6,0-2.9-1.2-2.9-2.9c0-1.7,1.3-2.9,3-2.9
				C49.9,13.5,51.4,14.8,51.3,16.5z"/>
			<linearGradient id="XMLID_4_" gradientUnits="userSpaceOnUse" x1="48.3449" y1="32.9964" x2="48.3449" y2="-9.094947e-13">
				<stop  offset="0" style="stop-color:#CCE0F4"/>
				<stop  offset="6.405089e-02" style="stop-color:#C3DCF2"/>
				<stop  offset="0.1706" style="stop-color:#A9D2EE"/>
				<stop  offset="0.3066" style="stop-color:#80C2E7"/>
				<stop  offset="0.4649" style="stop-color:#47ACDE"/>
				<stop  offset="0.5674" style="stop-color:#1E9CD7"/>
				<stop  offset="0.8652" style="stop-color:#0075BE"/>
				<stop  offset="0.9944" style="stop-color:#005B97"/>
			</linearGradient>
			<path id="XMLID_840_" class="st2" d="M58.2,0c0,1.1,0,2.1,0,3.2c-3.8-2.7-7.9-3.6-12.4-3c-4.6,0.7-8.1,3.1-10.8,6.7
				c-4.2,5.6-4.1,14.1,0.3,19.6c2.4,3,5.3,5.1,9.1,6c5,1.1,9.6,0.4,13.8-2.7c0,0.3,0,0.6,0,1c2.2,0.7,4.4,1.5,6.6,2.2
				c0-11,0-21.9,0-33C62.7,0,60.5,0,58.2,0z M59.6,18.5c1.2,0.5,1.1,0.5,0.1,2.8c-0.9,2.1-0.9,2.1-1.8,1.7c-1.9-0.9-3.9,1-3,2.9
				c0.5,1.1,0.4,1-1.9,1.9c-2.3,0.9-2.1,1-2.6-0.1c-0.7-1.8-3.3-1.9-4.1-0.2c-0.6,1.3-0.5,1.2-2.9,0.2c-2.1-0.9-2.1-0.8-1.6-1.9
				c0.8-1.8-1.1-3.7-2.9-2.9c-1.1,0.5-1.1,0.5-2.1-2c-0.8-2.1-0.9-2,0.2-2.5c2.1-0.8,1.8-3.7-0.2-4.2C36,14.1,36,14,36.9,11.8
				c1-2.4,1-2.4,1.7-2c0.9,0.5,2,0.4,2.7-0.3c0.7-0.7,0.8-1.8,0.4-2.7C41.3,6,41.3,6,43.6,5.1c2.4-1,2.4-1,2.6-0.1
				c0.6,2.2,3.7,2.2,4.3,0c0.2-0.8,0.3-0.9,2.6,0.1C55.4,6,55.4,6,55,6.7c-0.5,0.9-0.4,2,0.3,2.7c0.7,0.7,1.8,0.8,2.6,0.4
				c0.9-0.5,0.9-0.5,1.8,1.9c1,2.3,1,2.3,0,2.6C57.8,15,57.7,17.7,59.6,18.5z"/>
		</g>
	</g>
	<g id="XMLID_827_">
		<g id="XMLID_889_">
			<g id="XMLID_897_">
				<linearGradient id="XMLID_5_" gradientUnits="userSpaceOnUse" x1="115.1809" y1="43.3096" x2="115.1809" y2="29.2818">
					<stop  offset="0" style="stop-color:#FF7543"/>
					<stop  offset="0.6072" style="stop-color:#FFD01F"/>
					<stop  offset="1" style="stop-color:#FFF900"/>
				</linearGradient>
				<path id="XMLID_898_" class="st3" d="M119.3,36.4c0.2,0.6-0.1,1.5-0.1,1.5c0.1-1.4-1.2-2.2-0.6-4.4c0.3-0.9-0.3-1.4-0.3-1.4
					c0.2,0.6-0.2,0.8-0.7,1.6s-0.2,1.7-0.2,1.7c-0.9-0.9-0.5-2.2-0.2-3c0.2-0.8-0.1-1.2-0.1-1.2c0.2,0.9-1.2,2.2-2.1,0.7
					c-0.9-1.5,0.2-2.5,0.2-2.5c-1.4,0-1.8,1.9-1.7,2.9c0.2,1.8-0.8,2-0.8,2c0.1-0.6,0-1.2-0.3-1.6c-0.3-0.3-0.7-0.5-0.7-0.5
					s0.9,1.1-0.4,3.4c-0.7,1.2,0.1,2.5,0.1,2.5c-0.6-0.5-1.1,0-1.1,0c0.8,0.6,0.2,2.1,1.2,3.4c0.6,0.8,1.2,1.2,1.8,1.5
					c-1-0.6-1.7-1.8-1.7-3.1c0-2,1.6-3.6,3.6-3.6s3.6,1.6,3.6,3.6c0,1.3-0.7,2.5-1.8,3.1c1.5-0.5,2.1-1.6,2.4-2.3
					C120.7,37.7,119.3,36.4,119.3,36.4z"/>
			</g>
			<g id="XMLID_890_">
				<defs>
					<path id="XMLID_892_" d="M119.3,36.4c0.2,0.6-0.1,1.5-0.1,1.5c0.1-1.4-1.2-2.2-0.6-4.4c0.3-0.9-0.3-1.4-0.3-1.4
						c0.2,0.6-0.2,0.8-0.7,1.6s-0.2,1.7-0.2,1.7c-0.9-0.9-0.5-2.2-0.2-3c0.2-0.8-0.1-1.2-0.1-1.2c0.2,0.9-1.2,2.2-2.1,0.7
						c-0.9-1.5,0.2-2.5,0.2-2.5c-1.4,0-1.8,1.9-1.7,2.9c0.2,1.8-0.8,2-0.8,2c0.1-0.6,0-1.2-0.3-1.6c-0.3-0.3-0.7-0.5-0.7-0.5
						s0.9,1.1-0.4,3.4c-0.7,1.2,0.1,2.5,0.1,2.5c-0.6-0.5-1.1,0-1.1,0c0.8,0.6,0.2,2.1,1.2,3.4c0.6,0.8,1.2,1.2,1.8,1.5
						c-1-0.6-1.7-1.8-1.7-3.1c0-2,1.6-3.6,3.6-3.6s3.6,1.6,3.6,3.6c0,1.3-0.7,2.5-1.8,3.1c1.5-0.5,2.1-1.6,2.4-2.3
						C120.7,37.7,119.3,36.4,119.3,36.4z"/>
				</defs>
				<clipPath id="XMLID_6_">
					<use xlink:href="#XMLID_892_"  style="overflow:visible;"/>
				</clipPath>
				<g id="XMLID_895_" class="st4">
					<path id="XMLID_896_" class="st5" d="M119.3,37.5c0.2,0.6-0.1,1.5-0.1,1.5c0.1-1.4-1.2-2.2-0.6-4.4c0.3-0.9-0.3-1.4-0.3-1.4
						c0.2,0.6-0.2,0.8-0.7,1.6s-0.2,1.7-0.2,1.7c-0.9-0.9-0.5-2.2-0.2-3c0.2-0.8-0.1-1.2-0.1-1.2c0.2,0.9-1.2,2.2-2.1,0.7
						c-0.9-1.5,0.2-2.5,0.2-2.5c-1.4,0-1.8,1.9-1.7,2.9c0.2,1.8-0.8,2-0.8,2c0.1-0.6,0-1.2-0.3-1.6c-0.3-0.3-0.7-0.5-0.7-0.5
						s0.9,1.1-0.4,3.4c-0.7,1.2,0.1,2.5,0.1,2.5c-0.6-0.5-1.1,0-1.1,0c0.8,0.6,0.2,2.1,1.2,3.4c0.6,0.8,1.2,1.2,1.8,1.5
						c-1-0.6-1.7-1.8-1.7-3.1c0-2,1.6-3.6,3.6-3.6s3.6,1.6,3.6,3.6c0,1.3-0.7,2.5-1.8,3.1c1.5-0.5,2.1-1.6,2.4-2.3
						C120.6,38.8,119.3,37.5,119.3,37.5z"/>
				</g>
				<g id="XMLID_893_" class="st4">
					<path id="XMLID_894_" class="st5" d="M111.6,39.4c-0.2,0.6,0.1,1.4,0.1,1.4c-0.1-1.4,1.2-2.1,0.6-4.3c-0.2-0.9,0.3-1.4,0.3-1.4
						c-0.1,0.6,0.2,0.8,0.7,1.6c0.5,0.8,0.2,1.6,0.2,1.6c0.8-0.9,0.5-2.2,0.2-2.9s0.1-1.2,0.1-1.2c-0.1,0.9,1.1,2.1,2,0.6
						c0.9-1.4-0.2-2.4-0.2-2.4c1.4,0,1.7,1.8,1.6,2.8c-0.1,1.7,0.7,2,0.7,2c-0.1-0.6,0-1.2,0.3-1.5c0.3-0.3,0.7-0.4,0.7-0.4
						s-0.8,1,0.4,3.3c0.7,1.2-0.1,2.4-0.1,2.4c0.6-0.4,1.1,0,1.1,0c-0.8,0.6-0.2,2-1.2,3.3c-0.5,0.8-1.2,1.2-1.8,1.4
						c1-0.6-4.7-0.5-3.7,0.1c-1.4-0.5-2.1-1.6-2.3-2.3C110.3,40.7,111.6,39.4,111.6,39.4z"/>
				</g>
			</g>
		</g>
		<g id="XMLID_854_">
			<g id="XMLID_852_">
				<linearGradient id="XMLID_7_" gradientUnits="userSpaceOnUse" x1="4.914" y1="49.3209" x2="4.914" y2="33.0074">
					<stop  offset="0" style="stop-color:#CCE0F4"/>
					<stop  offset="6.405089e-02" style="stop-color:#C3DCF2"/>
					<stop  offset="0.1706" style="stop-color:#A9D2EE"/>
					<stop  offset="0.3066" style="stop-color:#80C2E7"/>
					<stop  offset="0.4649" style="stop-color:#47ACDE"/>
					<stop  offset="0.5674" style="stop-color:#1E9CD7"/>
					<stop  offset="0.8652" style="stop-color:#0075BE"/>
					<stop  offset="0.9944" style="stop-color:#005B97"/>
				</linearGradient>
				<path id="XMLID_856_" class="st6" d="M9.8,49.3H7.5l-0.6-3.1h-4l-0.6,3.1H0L3.6,33h2.6L9.8,49.3z M6.5,44l-1.5-7.7L3.4,44H6.5z"
					/>
				<linearGradient id="XMLID_8_" gradientUnits="userSpaceOnUse" x1="15.1957" y1="49.3541" x2="15.1957" y2="36.2945">
					<stop  offset="0" style="stop-color:#CCE0F4"/>
					<stop  offset="6.405089e-02" style="stop-color:#C3DCF2"/>
					<stop  offset="0.1706" style="stop-color:#A9D2EE"/>
					<stop  offset="0.3066" style="stop-color:#80C2E7"/>
					<stop  offset="0.4649" style="stop-color:#47ACDE"/>
					<stop  offset="0.5674" style="stop-color:#1E9CD7"/>
					<stop  offset="0.8652" style="stop-color:#0075BE"/>
					<stop  offset="0.9944" style="stop-color:#005B97"/>
				</linearGradient>
				<path id="XMLID_859_" class="st7" d="M19.2,49.4H17V49c-0.5,0.2-1,0.3-1.5,0.3h-0.6c-1,0-1.9-0.4-2.6-1.1
					c-0.7-0.7-1.1-1.6-1.1-2.6l0-9.3h2.2v9.3c0,0.4,0.1,0.8,0.4,1c0.3,0.3,0.6,0.4,1,0.4h0.6c0.4,0,0.7-0.1,1-0.4
					c0.3-0.2,0.4-0.6,0.5-0.9v-9.5h2.2V49.4z"/>
				<linearGradient id="XMLID_9_" gradientUnits="userSpaceOnUse" x1="23.701" y1="49.3541" x2="23.701" y2="34.092">
					<stop  offset="0" style="stop-color:#CCE0F4"/>
					<stop  offset="6.405089e-02" style="stop-color:#C3DCF2"/>
					<stop  offset="0.1706" style="stop-color:#A9D2EE"/>
					<stop  offset="0.3066" style="stop-color:#80C2E7"/>
					<stop  offset="0.4649" style="stop-color:#47ACDE"/>
					<stop  offset="0.5674" style="stop-color:#1E9CD7"/>
					<stop  offset="0.8652" style="stop-color:#0075BE"/>
					<stop  offset="0.9944" style="stop-color:#005B97"/>
				</linearGradient>
				<path id="XMLID_861_" class="st8" d="M26.8,49.4h-1.2c-1,0-1.9-0.4-2.6-1.1c-0.7-0.7-1.1-1.6-1.1-2.6v-4.8h-1.4v-2.2h1.4v-4.4
					h2.2v4.4h2.7v2.2h-2.7v4.9c0,0.4,0.1,0.8,0.4,1c0.3,0.3,0.6,0.4,1.1,0.4h1.2V49.4z"/>
				<linearGradient id="XMLID_10_" gradientUnits="userSpaceOnUse" x1="39.8596" y1="49.3541" x2="39.8596" y2="36.2834">
					<stop  offset="0" style="stop-color:#CCE0F4"/>
					<stop  offset="6.405089e-02" style="stop-color:#C3DCF2"/>
					<stop  offset="0.1706" style="stop-color:#A9D2EE"/>
					<stop  offset="0.3066" style="stop-color:#80C2E7"/>
					<stop  offset="0.4649" style="stop-color:#47ACDE"/>
					<stop  offset="0.5674" style="stop-color:#1E9CD7"/>
					<stop  offset="0.8652" style="stop-color:#0075BE"/>
					<stop  offset="0.9944" style="stop-color:#005B97"/>
				</linearGradient>
				<path id="XMLID_863_" class="st9" d="M51.6,49.4h-2.2V40c0-0.4-0.1-0.8-0.4-1.1c-0.3-0.3-0.6-0.4-1.1-0.4h-0.6
					c-0.4,0-0.7,0.1-1,0.4c-0.3,0.2-0.4,0.5-0.5,0.9c0,0,0,0.1,0,0.1c0,0,0,3.2,0,9.5h-2.2V40c0-0.4-0.1-0.8-0.4-1.1
					c-0.3-0.3-0.6-0.4-1.1-0.4h-0.6c-0.2,0-0.4,0-0.6,0.1c-0.5,0.3-1.1,1-1.8,2.1c-0.7,1.1-1.3,2.3-1.8,3.5
					c-0.6,1.2-0.9,2.1-1.1,2.6c-0.3,0.7-0.7,1.3-1.4,1.8c-0.6,0.5-1.4,0.7-2.2,0.7h-0.6c-1,0-1.9-0.4-2.6-1.1
					c-0.7-0.7-1.1-1.6-1.1-2.6V40c0-1,0.4-1.9,1.1-2.6c0.7-0.7,1.6-1.1,2.6-1.1h0.6c1,0,1.9,0.4,2.6,1.1c0.7,0.7,1.1,1.6,1.1,2.6
					l0,0.3L34,44.6V40c0-0.4-0.1-0.8-0.4-1.1c-0.3-0.3-0.6-0.4-1.1-0.4h-0.6c-0.4,0-0.8,0.1-1,0.4c-0.3,0.3-0.4,0.6-0.4,1.1v5.6
					c0,0.4,0.1,0.8,0.4,1.1c0.3,0.3,0.6,0.4,1,0.4h0.6c0.2,0,0.5-0.1,0.7-0.2c0.3-0.2,0.7-0.7,1.2-1.5c0.4-0.8,0.9-1.7,1.4-2.7
					c0.6-1.3,1.2-2.5,1.9-3.6l0.1-2.8h2.2v0.3c0.5-0.2,1-0.3,1.5-0.3H42c1,0,1.9,0.4,2.6,1.1c0.7-0.7,1.6-1.1,2.6-1.1h0.6
					c1,0,1.9,0.4,2.6,1.1c0.7,0.7,1.1,1.6,1.1,2.6V49.4z M39.9,49.3h-2.2l0-4.4h2.2L39.9,49.3z"/>
				<linearGradient id="XMLID_11_" gradientUnits="userSpaceOnUse" x1="56.8925" y1="49.3209" x2="56.8925" y2="36.2834">
					<stop  offset="0" style="stop-color:#CCE0F4"/>
					<stop  offset="6.405089e-02" style="stop-color:#C3DCF2"/>
					<stop  offset="0.1706" style="stop-color:#A9D2EE"/>
					<stop  offset="0.3066" style="stop-color:#80C2E7"/>
					<stop  offset="0.4649" style="stop-color:#47ACDE"/>
					<stop  offset="0.5674" style="stop-color:#1E9CD7"/>
					<stop  offset="0.8652" style="stop-color:#0075BE"/>
					<stop  offset="0.9944" style="stop-color:#005B97"/>
				</linearGradient>
				<path id="XMLID_866_" class="st10" d="M60.9,49.3h-2.2v-0.5c-0.5,0.3-1.2,0.5-2.1,0.5c-0.7,0-1.4-0.2-2-0.5
					c-0.6-0.4-1-0.8-1.3-1.4c-0.3-0.6-0.5-1.2-0.5-2v-0.2c0-0.9,0.2-1.7,0.5-2.3c0.7-1.3,1.8-2.1,3.5-2.5l1.8-0.5
					c0-0.5-0.1-0.8-0.4-1c-0.2-0.2-0.5-0.3-0.9-0.3c-0.3,0-0.5,0.1-0.8,0.2c-0.3,0.1-0.5,0.3-0.7,0.5c-0.2,0.2-0.3,0.5-0.3,0.8h-2.2
					c0-0.7,0.2-1.3,0.5-1.9c0.3-0.6,0.8-1,1.4-1.4c0.6-0.3,1.2-0.5,1.9-0.5h0.6c0.6,0,1.1,0.1,1.5,0.3c0.4,0.2,0.7,0.5,1,0.8
					c0.2,0.3,0.4,0.7,0.5,1c0.1,0.4,0.1,0.7,0.1,1V49.3z M56.6,47.1c0.5,0,1-0.1,1.3-0.4c0.3-0.3,0.5-0.7,0.6-1.1
					c0.1-0.4,0.2-0.9,0.2-1.4v-2c-0.5,0.1-0.9,0.2-1.5,0.4c-1.4,0.5-2.1,1.4-2.1,2.8c0,0.5,0.1,0.9,0.4,1.2
					C55.7,46.9,56.1,47.1,56.6,47.1z"/>
				<linearGradient id="XMLID_12_" gradientUnits="userSpaceOnUse" x1="65.4698" y1="49.3541" x2="65.4698" y2="34.092">
					<stop  offset="0" style="stop-color:#CCE0F4"/>
					<stop  offset="6.405089e-02" style="stop-color:#C3DCF2"/>
					<stop  offset="0.1706" style="stop-color:#A9D2EE"/>
					<stop  offset="0.3066" style="stop-color:#80C2E7"/>
					<stop  offset="0.4649" style="stop-color:#47ACDE"/>
					<stop  offset="0.5674" style="stop-color:#1E9CD7"/>
					<stop  offset="0.8652" style="stop-color:#0075BE"/>
					<stop  offset="0.9944" style="stop-color:#005B97"/>
				</linearGradient>
				<path id="XMLID_869_" class="st11" d="M68.6,49.4h-1.2c-1,0-1.9-0.4-2.6-1.1c-0.7-0.7-1.1-1.6-1.1-2.6v-4.8h-1.4v-2.2h1.4v-4.4
					h2.2v4.4h2.7v2.2h-2.7v4.9c0,0.4,0.1,0.8,0.4,1c0.3,0.3,0.6,0.4,1.1,0.4h1.2V49.4z"/>
			</g>
			<linearGradient id="XMLID_13_" gradientUnits="userSpaceOnUse" x1="71.0588" y1="49.343" x2="71.0588" y2="33.0296">
				<stop  offset="0" style="stop-color:#CCE0F4"/>
				<stop  offset="6.405089e-02" style="stop-color:#C3DCF2"/>
				<stop  offset="0.1706" style="stop-color:#A9D2EE"/>
				<stop  offset="0.3066" style="stop-color:#80C2E7"/>
				<stop  offset="0.4649" style="stop-color:#47ACDE"/>
				<stop  offset="0.5674" style="stop-color:#1E9CD7"/>
				<stop  offset="0.8652" style="stop-color:#0075BE"/>
				<stop  offset="0.9944" style="stop-color:#005B97"/>
			</linearGradient>
			<path id="XMLID_871_" class="st12" d="M72.2,35.3h-2.2V33h2.2V35.3z M72.2,49.3h-2.2v-13h2.2V49.3z"/>
			<linearGradient id="XMLID_14_" gradientUnits="userSpaceOnUse" x1="82.3034" y1="49.3762" x2="82.3034" y2="36.3166">
				<stop  offset="0" style="stop-color:#CCE0F4"/>
				<stop  offset="6.405089e-02" style="stop-color:#C3DCF2"/>
				<stop  offset="0.1706" style="stop-color:#A9D2EE"/>
				<stop  offset="0.3066" style="stop-color:#80C2E7"/>
				<stop  offset="0.4649" style="stop-color:#47ACDE"/>
				<stop  offset="0.5674" style="stop-color:#1E9CD7"/>
				<stop  offset="0.8652" style="stop-color:#0075BE"/>
				<stop  offset="0.9944" style="stop-color:#005B97"/>
			</linearGradient>
			<path id="XMLID_874_" class="st13" d="M91.1,49.4h-2.2V40c0-0.4-0.1-0.8-0.4-1.1c-0.3-0.3-0.6-0.4-1-0.4h-0.6
				c-0.2,0-0.4,0-0.6,0.1c-0.5,0.3-1.1,1-1.8,2.1c-0.7,1.1-1.3,2.3-1.8,3.5c-0.6,1.2-0.9,2.1-1.1,2.6c-0.3,0.7-0.7,1.3-1.4,1.8
				c-0.6,0.5-1.4,0.7-2.2,0.7h-0.6c-1,0-1.9-0.4-2.6-1.1c-0.7-0.7-1.1-1.6-1.1-2.6V40c0-1,0.4-1.9,1.1-2.6c0.7-0.7,1.6-1.1,2.6-1.1
				h0.6c1,0,1.9,0.4,2.6,1.1c0.7,0.7,1.1,1.6,1.1,2.6l0,0.3l-2.2,4.3V40c0-0.4-0.1-0.8-0.4-1.1c-0.3-0.3-0.6-0.4-1.1-0.4h-0.6
				c-0.4,0-0.8,0.1-1,0.4c-0.3,0.3-0.4,0.6-0.4,1.1v5.6c0,0.4,0.1,0.8,0.4,1c0.3,0.3,0.6,0.4,1,0.4h0.6c0.3,0,0.6-0.1,0.8-0.3
				l0.4-0.4c0.3-0.4,0.7-1.1,1.2-2c0.3-0.6,0.6-1.1,0.8-1.7c0.5-1.1,1-2,1.3-2.6c0.2-0.4,0.4-0.7,0.6-1.1l0.1-2.8h2.2v0.3
				c0.5-0.2,1-0.3,1.5-0.3h0.6c1,0,1.9,0.4,2.6,1.1c0.7,0.7,1.1,1.6,1.1,2.6V49.4z M85.3,49.4H83l0-4.4h2.2V49.4z"/>
		</g>
		<g id="XMLID_887_">
			<linearGradient id="XMLID_15_" gradientUnits="userSpaceOnUse" x1="95.9662" y1="32.9964" x2="95.9662" y2="49.3098">
				<stop  offset="0" style="stop-color:#FFF33B"/>
				<stop  offset="4.010540e-02" style="stop-color:#FEE72E"/>
				<stop  offset="0.1171" style="stop-color:#FED51B"/>
				<stop  offset="0.1964" style="stop-color:#FDCA10"/>
				<stop  offset="0.2809" style="stop-color:#FDC70C"/>
				<stop  offset="0.6685" style="stop-color:#F3903F"/>
				<stop  offset="0.8876" style="stop-color:#ED683C"/>
				<stop  offset="1" style="stop-color:#E93E3A"/>
			</linearGradient>
			<path id="XMLID_877_" class="st14" d="M94.6,49.3h-2.2V33h7.2v2.2h-5v5.2h3.5v2.2h-3.5V49.3z"/>
			<linearGradient id="XMLID_16_" gradientUnits="userSpaceOnUse" x1="102.0257" y1="33.0296" x2="102.0257" y2="49.343">
				<stop  offset="0" style="stop-color:#FFF33B"/>
				<stop  offset="4.010540e-02" style="stop-color:#FEE72E"/>
				<stop  offset="0.1171" style="stop-color:#FED51B"/>
				<stop  offset="0.1964" style="stop-color:#FDCA10"/>
				<stop  offset="0.2809" style="stop-color:#FDC70C"/>
				<stop  offset="0.6685" style="stop-color:#F3903F"/>
				<stop  offset="0.8876" style="stop-color:#ED683C"/>
				<stop  offset="1" style="stop-color:#E93E3A"/>
			</linearGradient>
			<path id="XMLID_879_" class="st15" d="M103.1,35.3h-2.2V33h2.2V35.3z M103.1,49.3h-2.2v-13h2.2V49.3z"/>
			<linearGradient id="XMLID_17_" gradientUnits="userSpaceOnUse" x1="107.2883" y1="36.2834" x2="107.2883" y2="49.343">
				<stop  offset="0" style="stop-color:#FFF33B"/>
				<stop  offset="4.010540e-02" style="stop-color:#FEE72E"/>
				<stop  offset="0.1171" style="stop-color:#FED51B"/>
				<stop  offset="0.1964" style="stop-color:#FDCA10"/>
				<stop  offset="0.2809" style="stop-color:#FDC70C"/>
				<stop  offset="0.6685" style="stop-color:#F3903F"/>
				<stop  offset="0.8876" style="stop-color:#ED683C"/>
				<stop  offset="1" style="stop-color:#E93E3A"/>
			</linearGradient>
			<path id="XMLID_882_" class="st16" d="M106.7,49.3h-2.2v-13h2.2v1.2c0.2-0.3,0.4-0.6,0.7-0.8c0.3-0.2,0.5-0.3,0.8-0.3
				c0.3,0,0.6-0.1,1-0.1l0.9,0v2.2c-0.4,0-0.8,0-1.2,0c-0.4,0-0.8,0.1-1.1,0.3c-0.3,0.1-0.6,0.4-0.8,0.7c-0.2,0.3-0.3,0.8-0.3,1.4
				V49.3z"/>
			<linearGradient id="XMLID_18_" gradientUnits="userSpaceOnUse" x1="115.0411" y1="36.2834" x2="115.0411" y2="49.343">
				<stop  offset="0" style="stop-color:#FFF33B"/>
				<stop  offset="4.010540e-02" style="stop-color:#FEE72E"/>
				<stop  offset="0.1171" style="stop-color:#FED51B"/>
				<stop  offset="0.1964" style="stop-color:#FDCA10"/>
				<stop  offset="0.2809" style="stop-color:#FDC70C"/>
				<stop  offset="0.6685" style="stop-color:#F3903F"/>
				<stop  offset="0.8876" style="stop-color:#ED683C"/>
				<stop  offset="1" style="stop-color:#E93E3A"/>
			</linearGradient>
			<path id="XMLID_884_" class="st17" d="M115.3,49.3h-0.6c-1,0-1.9-0.4-2.6-1.1c-0.7-0.7-1.1-1.6-1.1-2.6V40c0-1,0.4-1.9,1.1-2.6
				c0.7-0.7,1.6-1.1,2.6-1.1h0.6c1,0,1.9,0.4,2.6,1.1c0.7,0.7,1.1,1.6,1.1,2.6v3.7h-5.8v1.9c0,0.4,0.1,0.8,0.4,1
				c0.3,0.3,0.6,0.4,1,0.4h0.6c0.4,0,0.8-0.1,1.1-0.4c0.3-0.3,0.4-0.6,0.4-1v-0.9h2.2v0.9c0,1-0.4,1.9-1.1,2.6
				C117.3,49,116.4,49.3,115.3,49.3z M116.8,41.5V40c0-0.4-0.1-0.8-0.4-1c-0.3-0.3-0.6-0.4-1-0.4h-0.6c-0.4,0-0.8,0.1-1.1,0.4
				c-0.3,0.3-0.4,0.6-0.4,1v1.4H116.8z"/>
		</g>
	</g>
</g>
</svg>
