<?xml version="1.0" encoding="utf-8"?>
<!-- Generator: Adobe Illustrator 24.0.0, SVG Export Plug-In . SVG Version: 6.00 Build 0)  -->
<svg version="1.1" id="Layer_1" xmlns="http://www.w3.org/2000/svg" xmlns:xlink="http://www.w3.org/1999/xlink" x="0px" y="0px"
	 viewBox="0 0 78 45.8" style="enable-background:new 0 0 78 45.8;" xml:space="preserve">
<style type="text/css">
	.st0{fill:url(#XMLID_2_);}
	.st1{fill:url(#XMLID_3_);}
	.st2{fill:url(#XMLID_4_);}
</style>
<g>
	<g id="XMLID_831_">
		<g id="XMLID_828_">
			<linearGradient id="XMLID_2_" gradientUnits="userSpaceOnUse" x1="46.8036" y1="22.8418" x2="78" y2="22.8418">
				<stop  offset="0" style="stop-color:#FFF33B"/>
				<stop  offset="4.010540e-02" style="stop-color:#FEE72E"/>
				<stop  offset="0.1171" style="stop-color:#FED51B"/>
				<stop  offset="0.1964" style="stop-color:#FDCA10"/>
				<stop  offset="0.2809" style="stop-color:#FDC70C"/>
				<stop  offset="0.6685" style="stop-color:#F3903F"/>
				<stop  offset="0.8876" style="stop-color:#ED683C"/>
				<stop  offset="1" style="stop-color:#E93E3A"/>
			</linearGradient>
			<path id="XMLID_960_" class="st0" d="M55.9,37.9c-3.1,2.6-6,5.1-9.1,7.7c0-15.2,0-30.4,0-45.5c8,0,29.7,0,31.1,0
				c0,0.1-8.5,8.9-8.5,8.9S56.2,9.2,55.9,9.2c0,3,0,6,0,9.1c7.4,0,14.7,0,22.1,0c-0.1,0.2-7.1,9-7.1,9s-14.6,0.2-15,0.2
				C55.9,31,55.9,34.5,55.9,37.9z"/>
			<g id="XMLID_823_">
				<linearGradient id="XMLID_3_" gradientUnits="userSpaceOnUse" x1="22.8738" y1="26.9426" x2="22.8738" y2="18.7892">
					<stop  offset="0" style="stop-color:#CCE0F4"/>
					<stop  offset="6.405089e-02" style="stop-color:#C3DCF2"/>
					<stop  offset="0.1706" style="stop-color:#A9D2EE"/>
					<stop  offset="0.3066" style="stop-color:#80C2E7"/>
					<stop  offset="0.4649" style="stop-color:#47ACDE"/>
					<stop  offset="0.5674" style="stop-color:#1E9CD7"/>
					<stop  offset="0.8652" style="stop-color:#0075BE"/>
					<stop  offset="0.9944" style="stop-color:#005B97"/>
				</linearGradient>
				<path id="XMLID_937_" class="st1" d="M26.9,23c0,2.2-1.8,4-4.1,4c-2.3,0-4.1-1.7-4.1-4.1c0-2.4,1.8-4.1,4.2-4.1
					C25,18.8,27.1,20.6,26.9,23z"/>
				<linearGradient id="XMLID_4_" gradientUnits="userSpaceOnUse" x1="22.8349" y1="45.7808" x2="22.8349" y2="-9.094947e-13">
					<stop  offset="0" style="stop-color:#CCE0F4"/>
					<stop  offset="6.405089e-02" style="stop-color:#C3DCF2"/>
					<stop  offset="0.1706" style="stop-color:#A9D2EE"/>
					<stop  offset="0.3066" style="stop-color:#80C2E7"/>
					<stop  offset="0.4649" style="stop-color:#47ACDE"/>
					<stop  offset="0.5674" style="stop-color:#1E9CD7"/>
					<stop  offset="0.8652" style="stop-color:#0075BE"/>
					<stop  offset="0.9944" style="stop-color:#005B97"/>
				</linearGradient>
				<path id="XMLID_840_" class="st2" d="M36.5,0c0,1.6,0,2.9,0,4.4c-5.2-3.8-11-5-17.3-4.1C12.8,1.2,8,4.6,4.2,9.6
					c-5.8,7.7-5.6,19.5,0.5,27.1c3.3,4.1,7.4,7.1,12.6,8.3c6.9,1.6,13.3,0.5,19.2-3.7c0,0.5,0,0.9,0.1,1.3c3,1,6.2,2,9.1,3.1
					c0-15.3,0-30.4,0-45.7C42.7,0,39.7,0,36.5,0z M38.5,25.7c1.6,0.7,1.5,0.7,0.1,3.9c-1.2,2.9-1.2,3-2.5,2.3
					c-2.6-1.3-5.4,1.4-4.2,4.1c0.7,1.5,0.6,1.4-2.6,2.7c-3.2,1.3-3,1.4-3.5-0.2c-1-2.5-4.5-2.7-5.7-0.2c-0.8,1.7-0.7,1.7-4,0.3
					c-2.9-1.2-2.9-1.2-2.2-2.7c1.1-2.6-1.5-5.1-4.1-4.1c-1.6,0.7-1.5,0.7-2.9-2.8c-1.1-2.9-1.2-2.8,0.2-3.4c2.9-1.1,2.6-5.1-0.2-5.8
					c-1.2-0.3-1.2-0.4,0.1-3.5C8.3,13,8.4,13,9.4,13.6c1.2,0.7,2.8,0.6,3.8-0.5c1-1,1.2-2.6,0.5-3.7c-0.6-1.1-0.6-1,2.5-2.4
					c3.3-1.4,3.4-1.4,3.7-0.2c0.8,3,5.2,3,6,0c0.3-1.1,0.4-1.2,3.6,0.2c3.2,1.3,3.2,1.4,2.7,2.3c-0.7,1.2-0.6,2.8,0.4,3.8
					c1,1,2.4,1.2,3.6,0.6c1.2-0.6,1.2-0.6,2.5,2.6c1.3,3.2,1.3,3.1,0,3.6C36,20.8,35.9,24.6,38.5,25.7z"/>
			</g>
		</g>
	</g>
</g>
</svg>
