<?xml version="1.0" encoding="utf-8"?>
<!-- Generator: Adobe Illustrator 24.0.0, SVG Export Plug-In . SVG Version: 6.00 Build 0)  -->
<svg version="1.1" id="Layer_1" xmlns="http://www.w3.org/2000/svg" xmlns:xlink="http://www.w3.org/1999/xlink" x="0px" y="0px"
	 viewBox="0 0 56.1 32.9" style="enable-background:new 0 0 56.1 32.9;" xml:space="preserve">
<style type="text/css">
	.st0{fill:url(#XMLID_2_);}
	.st1{fill:url(#XMLID_3_);}
	.st2{fill:url(#XMLID_4_);}
</style>
<g id="XMLID_828_">
	<linearGradient id="XMLID_2_" gradientUnits="userSpaceOnUse" x1="33.6681" y1="16.4312" x2="56.1091" y2="16.4312">
		<stop  offset="0" style="stop-color:#FFF33B"/>
		<stop  offset="4.010540e-02" style="stop-color:#FEE72E"/>
		<stop  offset="0.1171" style="stop-color:#FED51B"/>
		<stop  offset="0.1964" style="stop-color:#FDCA10"/>
		<stop  offset="0.2809" style="stop-color:#FDC70C"/>
		<stop  offset="0.6685" style="stop-color:#F3903F"/>
		<stop  offset="0.8876" style="stop-color:#ED683C"/>
		<stop  offset="1" style="stop-color:#E93E3A"/>
	</linearGradient>
	<path id="XMLID_960_" class="st0" d="M40.2,27.3c-2.2,1.9-4.3,3.7-6.5,5.5c0-11,0-21.8,0-32.7c5.7,0,21.4,0,22.4,0
		c0,0-6.1,6.4-6.1,6.4s-9.5,0.1-9.7,0.1c0,2.2,0,4.3,0,6.5c5.3,0,10.6,0,15.9,0C56,13.3,51,19.7,51,19.7s-10.5,0.1-10.8,0.1
		C40.2,22.3,40.2,24.8,40.2,27.3z"/>
	<g id="XMLID_823_">
		<linearGradient id="XMLID_3_" gradientUnits="userSpaceOnUse" x1="16.4543" y1="19.3811" x2="16.4543" y2="13.5159">
			<stop  offset="0" style="stop-color:#CCE0F4"/>
			<stop  offset="6.405089e-02" style="stop-color:#C3DCF2"/>
			<stop  offset="0.1706" style="stop-color:#A9D2EE"/>
			<stop  offset="0.3066" style="stop-color:#80C2E7"/>
			<stop  offset="0.4649" style="stop-color:#47ACDE"/>
			<stop  offset="0.5674" style="stop-color:#1E9CD7"/>
			<stop  offset="0.8652" style="stop-color:#0075BE"/>
			<stop  offset="0.9944" style="stop-color:#005B97"/>
		</linearGradient>
		<path id="XMLID_937_" class="st1" d="M19.4,16.5c0,1.6-1.3,2.9-2.9,2.9c-1.6,0-2.9-1.2-2.9-2.9c0-1.7,1.3-2.9,3-2.9
			C18,13.5,19.5,14.8,19.4,16.5z"/>
		<linearGradient id="XMLID_4_" gradientUnits="userSpaceOnUse" x1="16.4262" y1="32.9323" x2="16.4262" y2="-9.094947e-13">
			<stop  offset="0" style="stop-color:#CCE0F4"/>
			<stop  offset="6.405089e-02" style="stop-color:#C3DCF2"/>
			<stop  offset="0.1706" style="stop-color:#A9D2EE"/>
			<stop  offset="0.3066" style="stop-color:#80C2E7"/>
			<stop  offset="0.4649" style="stop-color:#47ACDE"/>
			<stop  offset="0.5674" style="stop-color:#1E9CD7"/>
			<stop  offset="0.8652" style="stop-color:#0075BE"/>
			<stop  offset="0.9944" style="stop-color:#005B97"/>
		</linearGradient>
		<path id="XMLID_840_" class="st2" d="M26.2,0c0,1.1,0,2.1,0,3.2c-3.8-2.7-7.9-3.6-12.4-3C9.2,0.9,5.8,3.3,3,6.9
			c-4.2,5.6-4.1,14,0.3,19.5c2.4,3,5.3,5.1,9,6c4.9,1.1,9.6,0.4,13.8-2.7c0,0.3,0,0.6,0,1c2.2,0.7,4.4,1.5,6.6,2.2
			c0-11,0-21.9,0-32.9C30.7,0,28.6,0,26.2,0z M27.7,18.5c1.2,0.5,1.1,0.5,0.1,2.8c-0.9,2.1-0.9,2.1-1.8,1.7c-1.9-0.9-3.9,1-3,2.9
			c0.5,1.1,0.4,1-1.9,1.9c-2.3,0.9-2.1,1-2.6-0.1c-0.7-1.8-3.2-1.9-4.1-0.2c-0.6,1.2-0.5,1.2-2.9,0.2c-2.1-0.9-2.1-0.8-1.6-1.9
			c0.8-1.8-1.1-3.7-2.9-2.9c-1.1,0.5-1.1,0.5-2.1-2c-0.8-2.1-0.9-2,0.2-2.5C7.2,17.7,7,14.8,5,14.3C4.1,14,4.1,14,5,11.8
			c1-2.4,1-2.4,1.7-2c0.9,0.5,2,0.4,2.7-0.3c0.7-0.7,0.8-1.8,0.4-2.7C9.4,6,9.4,6,11.7,5.1c2.4-1,2.4-1,2.6-0.1
			c0.6,2.2,3.7,2.2,4.3,0c0.2-0.8,0.3-0.8,2.6,0.1c2.3,0.9,2.3,1,1.9,1.7c-0.5,0.9-0.4,2,0.3,2.7c0.7,0.7,1.8,0.8,2.6,0.4
			c0.9-0.5,0.9-0.5,1.8,1.9c1,2.3,1,2.3,0,2.6C25.9,15,25.8,17.7,27.7,18.5z"/>
	</g>
</g>
</svg>
