<?xml version="1.0" encoding="utf-8"?>
<!-- Generator: Adobe Illustrator 24.0.0, SVG Export Plug-In . SVG Version: 6.00 Build 0)  -->
<svg version="1.1" id="Layer_1" xmlns="http://www.w3.org/2000/svg" xmlns:xlink="http://www.w3.org/1999/xlink" x="0px" y="0px"
	 viewBox="0 0 174.8 23.9" style="enable-background:new 0 0 174.8 23.9;" xml:space="preserve">
<style type="text/css">
	.st0{fill:url(#XMLID_2_);}
	.st1{fill:url(#XMLID_3_);}
	.st2{fill:url(#XMLID_4_);}
	.st3{fill:url(#XMLID_5_);}
	.st4{clip-path:url(#XMLID_6_);}
	.st5{fill:#2A3C46;}
	.st6{fill:url(#XMLID_7_);}
	.st7{fill:url(#XMLID_8_);}
	.st8{fill:url(#XMLID_9_);}
	.st9{fill:url(#XMLID_10_);}
	.st10{fill:url(#XMLID_11_);}
	.st11{fill:url(#XMLID_12_);}
	.st12{fill:url(#XMLID_13_);}
	.st13{fill:url(#XMLID_14_);}
	.st14{fill:url(#XMLID_15_);}
	.st15{fill:url(#XMLID_16_);}
	.st16{fill:url(#XMLID_17_);}
	.st17{fill:url(#XMLID_18_);}
</style>
<g>
	<g id="XMLID_831_">
		<g id="XMLID_828_">
			<linearGradient id="XMLID_2_" gradientUnits="userSpaceOnUse" x1="19.8643" y1="14.115" x2="33.1047" y2="14.115">
				<stop  offset="0" style="stop-color:#FFF33B"/>
				<stop  offset="4.010540e-02" style="stop-color:#FEE72E"/>
				<stop  offset="0.1171" style="stop-color:#FED51B"/>
				<stop  offset="0.1964" style="stop-color:#FDCA10"/>
				<stop  offset="0.2809" style="stop-color:#FDC70C"/>
				<stop  offset="0.6685" style="stop-color:#F3903F"/>
				<stop  offset="0.8876" style="stop-color:#ED683C"/>
				<stop  offset="1" style="stop-color:#E93E3A"/>
			</linearGradient>
			<path id="XMLID_960_" class="st0" d="M23.7,20.5c-1.3,1.1-2.6,2.2-3.9,3.3c0-6.5,0-12.9,0-19.3c3.4,0,12.6,0,13.2,0
				c0,0-3.6,3.8-3.6,3.8s-5.6,0.1-5.7,0.1c0,1.3,0,2.6,0,3.9c3.1,0,6.2,0,9.4,0c0,0.1-3,3.8-3,3.8s-6.2,0.1-6.4,0.1
				C23.7,17.6,23.7,19.1,23.7,20.5z"/>
			<g id="XMLID_823_">
				<linearGradient id="XMLID_3_" gradientUnits="userSpaceOnUse" x1="9.7081" y1="15.8555" x2="9.7081" y2="12.395">
					<stop  offset="0" style="stop-color:#CCE0F4"/>
					<stop  offset="6.405089e-02" style="stop-color:#C3DCF2"/>
					<stop  offset="0.1706" style="stop-color:#A9D2EE"/>
					<stop  offset="0.3066" style="stop-color:#80C2E7"/>
					<stop  offset="0.4649" style="stop-color:#47ACDE"/>
					<stop  offset="0.5674" style="stop-color:#1E9CD7"/>
					<stop  offset="0.8652" style="stop-color:#0075BE"/>
					<stop  offset="0.9944" style="stop-color:#005B97"/>
				</linearGradient>
				<path id="XMLID_937_" class="st1" d="M11.4,14.2c0,0.9-0.8,1.7-1.7,1.7c-1,0-1.7-0.7-1.7-1.7c0-1,0.8-1.7,1.8-1.7
					C10.6,12.4,11.5,13.2,11.4,14.2z"/>
				<linearGradient id="XMLID_4_" gradientUnits="userSpaceOnUse" x1="9.6916" y1="23.8508" x2="9.6916" y2="4.4205">
					<stop  offset="0" style="stop-color:#CCE0F4"/>
					<stop  offset="6.405089e-02" style="stop-color:#C3DCF2"/>
					<stop  offset="0.1706" style="stop-color:#A9D2EE"/>
					<stop  offset="0.3066" style="stop-color:#80C2E7"/>
					<stop  offset="0.4649" style="stop-color:#47ACDE"/>
					<stop  offset="0.5674" style="stop-color:#1E9CD7"/>
					<stop  offset="0.8652" style="stop-color:#0075BE"/>
					<stop  offset="0.9944" style="stop-color:#005B97"/>
				</linearGradient>
				<path id="XMLID_840_" class="st2" d="M15.5,4.4c0,0.7,0,1.2,0,1.9c-2.2-1.6-4.7-2.1-7.3-1.7c-2.7,0.4-4.8,1.8-6.4,4
					C-0.7,11.8-0.6,16.8,2,20c1.4,1.7,3.1,3,5.3,3.5c2.9,0.7,5.7,0.2,8.1-1.6c0,0.2,0,0.4,0,0.6c1.3,0.4,2.6,0.9,3.9,1.3
					c0-6.5,0-12.9,0-19.4C18.1,4.4,16.9,4.4,15.5,4.4z M16.3,15.3c0.7,0.3,0.7,0.3,0.1,1.7c-0.5,1.2-0.5,1.3-1,1
					c-1.1-0.6-2.3,0.6-1.8,1.7c0.3,0.6,0.3,0.6-1.1,1.1c-1.3,0.5-1.3,0.6-1.5-0.1c-0.4-1.1-1.9-1.1-2.4-0.1
					c-0.4,0.7-0.3,0.7-1.7,0.1c-1.2-0.5-1.2-0.5-0.9-1.1c0.5-1.1-0.6-2.2-1.7-1.7c-0.7,0.3-0.6,0.3-1.2-1.2
					c-0.5-1.2-0.5-1.2,0.1-1.4c1.2-0.5,1.1-2.1-0.1-2.5c-0.5-0.1-0.5-0.2,0-1.5c0.6-1.4,0.6-1.4,1-1.2c0.5,0.3,1.2,0.2,1.6-0.2
					C6,9.6,6.1,8.9,5.8,8.4C5.5,8,5.6,8,6.9,7.4c1.4-0.6,1.4-0.6,1.6-0.1c0.3,1.3,2.2,1.3,2.5,0c0.1-0.5,0.2-0.5,1.5,0.1
					c1.3,0.6,1.4,0.6,1.1,1c-0.3,0.5-0.3,1.2,0.2,1.6c0.4,0.4,1,0.5,1.5,0.2c0.5-0.3,0.5-0.3,1.1,1.1c0.6,1.4,0.6,1.3,0,1.5
					C15.3,13.3,15.2,14.9,16.3,15.3z"/>
			</g>
		</g>
	</g>
	<g id="XMLID_827_">
		<g id="XMLID_889_">
			<g id="XMLID_897_">
				<linearGradient id="XMLID_5_" gradientUnits="userSpaceOnUse" x1="169.1342" y1="16.5989" x2="169.1342" y2="3.205097e-02">
					<stop  offset="0" style="stop-color:#FF7543"/>
					<stop  offset="0.6072" style="stop-color:#FFD01F"/>
					<stop  offset="1" style="stop-color:#FFF900"/>
				</linearGradient>
				<path id="XMLID_898_" class="st3" d="M174,8.4c0.3,0.8-0.1,1.7-0.1,1.7c0.1-1.7-1.4-2.6-0.7-5.2c0.3-1.1-0.3-1.7-0.3-1.7
					c0.2,0.7-0.3,0.9-0.8,1.9c-0.6,1-0.3,2-0.3,2c-1-1.1-0.6-2.6-0.3-3.5s-0.1-1.5-0.1-1.5c0.2,1-1.4,2.6-2.4,0.8
					c-1.1-1.8,0.3-2.9,0.3-2.9c-1.7,0-2.1,2.2-2,3.5c0.2,2.1-0.9,2.4-0.9,2.4c0.2-0.7,0-1.4-0.4-1.8c-0.3-0.4-0.8-0.5-0.8-0.5
					s1,1.3-0.5,4c-0.8,1.4,0.1,2.9,0.1,2.9c-0.7-0.5-1.3,0-1.3,0c1,0.7,0.3,2.4,1.4,4c0.7,0.9,1.4,1.4,2.2,1.7c-1.2-0.8-2-2.1-2-3.6
					c0-2.4,1.9-4.3,4.3-4.3s4.3,1.9,4.3,4.3c0,1.6-0.9,3-2.1,3.7c1.7-0.6,2.5-1.9,2.8-2.8C175.6,10,174,8.4,174,8.4z"/>
			</g>
			<g id="XMLID_890_">
				<defs>
					<path id="XMLID_892_" d="M174,8.4c0.3,0.8-0.1,1.7-0.1,1.7c0.1-1.7-1.4-2.6-0.7-5.2c0.3-1.1-0.3-1.7-0.3-1.7
						c0.2,0.7-0.3,0.9-0.8,1.9c-0.6,1-0.3,2-0.3,2c-1-1.1-0.6-2.6-0.3-3.5s-0.1-1.5-0.1-1.5c0.2,1-1.4,2.6-2.4,0.8
						c-1.1-1.8,0.3-2.9,0.3-2.9c-1.7,0-2.1,2.2-2,3.5c0.2,2.1-0.9,2.4-0.9,2.4c0.2-0.7,0-1.4-0.4-1.8c-0.3-0.4-0.8-0.5-0.8-0.5
						s1,1.3-0.5,4c-0.8,1.4,0.1,2.9,0.1,2.9c-0.7-0.5-1.3,0-1.3,0c1,0.7,0.3,2.4,1.4,4c0.7,0.9,1.4,1.4,2.2,1.7
						c-1.2-0.8-2-2.1-2-3.6c0-2.4,1.9-4.3,4.3-4.3s4.3,1.9,4.3,4.3c0,1.6-0.9,3-2.1,3.7c1.7-0.6,2.5-1.9,2.8-2.8
						C175.6,10,174,8.4,174,8.4z"/>
				</defs>
				<clipPath id="XMLID_6_">
					<use xlink:href="#XMLID_892_"  style="overflow:visible;"/>
				</clipPath>
				<g id="XMLID_895_" class="st4">
					<path id="XMLID_896_" class="st5" d="M173.9,9.7c0.3,0.8-0.1,1.7-0.1,1.7c0.1-1.7-1.4-2.6-0.7-5.2c0.3-1.1-0.3-1.7-0.3-1.7
						c0.2,0.7-0.3,0.9-0.8,1.9s-0.3,2-0.3,2c-1-1.1-0.6-2.6-0.3-3.5s-0.1-1.5-0.1-1.5c0.2,1-1.4,2.6-2.4,0.8
						c-1.1-1.8,0.3-2.9,0.3-2.9c-1.7,0-2.1,2.2-2,3.5c0.2,2.1-0.9,2.4-0.9,2.4c0.2-0.7,0-1.4-0.4-1.8c-0.3-0.4-0.8-0.5-0.8-0.5
						s1,1.3-0.5,4c-0.8,1.4,0.1,2.9,0.1,2.9c-0.7-0.5-1.3,0-1.3,0c1,0.7,0.3,2.4,1.4,4c0.7,0.9,1.4,1.4,2.2,1.7
						c-1.2-0.8-2-2.1-2-3.6c0-2.4,1.9-4.3,4.3-4.3s4.3,1.9,4.3,4.3c0,1.6-0.9,3-2.1,3.7c1.7-0.6,2.5-1.9,2.8-2.8
						C175.5,11.3,173.9,9.7,173.9,9.7z"/>
				</g>
				<g id="XMLID_893_" class="st4">
					<path id="XMLID_894_" class="st5" d="M164.9,12c-0.3,0.7,0.1,1.7,0.1,1.7c-0.1-1.6,1.4-2.5,0.7-5c-0.3-1.1,0.3-1.6,0.3-1.6
						c-0.2,0.7,0.2,0.9,0.8,1.8c0.6,0.9,0.3,1.9,0.3,1.9c1-1,0.6-2.5,0.3-3.4c-0.3-0.9,0.1-1.4,0.1-1.4c-0.2,1,1.3,2.5,2.4,0.8
						c1-1.7-0.3-2.8-0.3-2.8c1.6,0,2,2.1,1.9,3.3c-0.2,2,0.9,2.3,0.9,2.3c-0.2-0.7,0-1.4,0.4-1.8c0.3-0.4,0.8-0.5,0.8-0.5
						s-1,1.2,0.5,3.9c0.8,1.4-0.1,2.8-0.1,2.8c0.7-0.5,1.3,0,1.3,0c-0.9,0.7-0.3,2.4-1.4,3.9c-0.6,0.9-1.4,1.4-2.1,1.7
						c1.2-0.7-5.6-0.6-4.3,0.1c-1.7-0.6-2.4-1.9-2.7-2.7C163.4,13.5,164.9,12,164.9,12z"/>
				</g>
			</g>
		</g>
		<g id="XMLID_854_">
			<g id="XMLID_852_">
				<linearGradient id="XMLID_7_" gradientUnits="userSpaceOnUse" x1="38.9081" y1="23.6984" x2="38.9081" y2="4.432">
					<stop  offset="0" style="stop-color:#CCE0F4"/>
					<stop  offset="6.405089e-02" style="stop-color:#C3DCF2"/>
					<stop  offset="0.1706" style="stop-color:#A9D2EE"/>
					<stop  offset="0.3066" style="stop-color:#80C2E7"/>
					<stop  offset="0.4649" style="stop-color:#47ACDE"/>
					<stop  offset="0.5674" style="stop-color:#1E9CD7"/>
					<stop  offset="0.8652" style="stop-color:#0075BE"/>
					<stop  offset="0.9944" style="stop-color:#005B97"/>
				</linearGradient>
				<path id="XMLID_856_" class="st6" d="M44.7,23.7H42l-0.7-3.6h-4.7l-0.7,3.6h-2.7l4.3-19.3h3L44.7,23.7z M40.7,17.4l-1.8-9.1
					l-1.8,9.1H40.7z"/>
				<linearGradient id="XMLID_8_" gradientUnits="userSpaceOnUse" x1="51.0509" y1="23.7376" x2="51.0509" y2="8.314">
					<stop  offset="0" style="stop-color:#CCE0F4"/>
					<stop  offset="6.405089e-02" style="stop-color:#C3DCF2"/>
					<stop  offset="0.1706" style="stop-color:#A9D2EE"/>
					<stop  offset="0.3066" style="stop-color:#80C2E7"/>
					<stop  offset="0.4649" style="stop-color:#47ACDE"/>
					<stop  offset="0.5674" style="stop-color:#1E9CD7"/>
					<stop  offset="0.8652" style="stop-color:#0075BE"/>
					<stop  offset="0.9944" style="stop-color:#005B97"/>
				</linearGradient>
				<path id="XMLID_859_" class="st7" d="M55.8,23.7h-2.7v-0.4c-0.5,0.2-1.1,0.4-1.8,0.4h-0.7c-1.2,0-2.2-0.4-3.1-1.3
					c-0.8-0.8-1.3-1.9-1.3-3.1l0-11h2.7v11c0,0.5,0.2,0.9,0.5,1.2c0.3,0.3,0.8,0.5,1.2,0.5h0.7c0.4,0,0.8-0.1,1.2-0.4
					c0.3-0.3,0.5-0.7,0.6-1.1V8.3h2.7V23.7z"/>
				<linearGradient id="XMLID_9_" gradientUnits="userSpaceOnUse" x1="61.0958" y1="23.7376" x2="61.0958" y2="5.7129">
					<stop  offset="0" style="stop-color:#CCE0F4"/>
					<stop  offset="6.405089e-02" style="stop-color:#C3DCF2"/>
					<stop  offset="0.1706" style="stop-color:#A9D2EE"/>
					<stop  offset="0.3066" style="stop-color:#80C2E7"/>
					<stop  offset="0.4649" style="stop-color:#47ACDE"/>
					<stop  offset="0.5674" style="stop-color:#1E9CD7"/>
					<stop  offset="0.8652" style="stop-color:#0075BE"/>
					<stop  offset="0.9944" style="stop-color:#005B97"/>
				</linearGradient>
				<path id="XMLID_861_" class="st8" d="M64.8,23.7h-1.4c-1.2,0-2.3-0.4-3.1-1.3c-0.9-0.9-1.3-1.9-1.3-3.1v-5.7h-1.6v-2.7H59V5.7
					h2.6v5.2h3.1v2.7h-3.1v5.7c0,0.5,0.2,0.9,0.5,1.2c0.3,0.3,0.8,0.5,1.2,0.5h1.4V23.7z"/>
				<linearGradient id="XMLID_10_" gradientUnits="userSpaceOnUse" x1="80.1791" y1="23.7376" x2="80.1791" y2="8.301">
					<stop  offset="0" style="stop-color:#CCE0F4"/>
					<stop  offset="6.405089e-02" style="stop-color:#C3DCF2"/>
					<stop  offset="0.1706" style="stop-color:#A9D2EE"/>
					<stop  offset="0.3066" style="stop-color:#80C2E7"/>
					<stop  offset="0.4649" style="stop-color:#47ACDE"/>
					<stop  offset="0.5674" style="stop-color:#1E9CD7"/>
					<stop  offset="0.8652" style="stop-color:#0075BE"/>
					<stop  offset="0.9944" style="stop-color:#005B97"/>
				</linearGradient>
				<path id="XMLID_863_" class="st9" d="M94,23.7h-2.7v-11c0-0.5-0.2-0.9-0.5-1.2c-0.3-0.3-0.8-0.5-1.2-0.5h-0.7
					c-0.4,0-0.8,0.1-1.2,0.4c-0.3,0.3-0.5,0.6-0.6,1.1c0,0,0,0.1,0,0.1c0,0,0,3.8,0,11.2h-2.7v-11c0-0.5-0.2-0.9-0.5-1.2
					c-0.3-0.3-0.8-0.5-1.2-0.5H82c-0.2,0-0.4,0-0.7,0.1c-0.6,0.3-1.3,1.2-2.1,2.5c-0.8,1.3-1.5,2.7-2.2,4.1
					c-0.7,1.4-1.1,2.5-1.3,3.1c-0.3,0.9-0.9,1.6-1.6,2.1c-0.7,0.5-1.6,0.8-2.6,0.8h-0.7c-1.2,0-2.3-0.4-3.1-1.3
					c-0.9-0.9-1.3-1.9-1.3-3.1v-6.6c0-1.2,0.5-2.3,1.3-3.1c0.8-0.8,1.9-1.3,3.1-1.3h0.7c1.2,0,2.3,0.5,3.1,1.3
					c0.8,0.8,1.3,1.9,1.3,3.1L75.9,13l-2.6,5.1v-5.4c0-0.5-0.2-0.9-0.5-1.2C72.4,11.1,72,11,71.5,11h-0.7c-0.5,0-0.9,0.2-1.2,0.5
					c-0.3,0.3-0.5,0.8-0.5,1.2v6.6c0,0.5,0.2,0.9,0.5,1.2c0.3,0.3,0.8,0.5,1.2,0.5h0.7c0.3,0,0.5-0.1,0.8-0.2
					c0.4-0.3,0.9-0.8,1.4-1.8c0.5-0.9,1-2,1.6-3.2c0.7-1.5,1.5-3,2.2-4.3l0.1-3.3h2.7v0.4c0.5-0.3,1.1-0.4,1.8-0.4h0.7
					c1.2,0,2.2,0.5,3.1,1.3c0.9-0.8,1.9-1.3,3.1-1.3h0.7c1.2,0,2.3,0.5,3.1,1.3c0.8,0.8,1.3,1.9,1.3,3.1V23.7z M80.2,23.7h-2.7
					l0-5.2h2.6L80.2,23.7z"/>
				<linearGradient id="XMLID_11_" gradientUnits="userSpaceOnUse" x1="100.2951" y1="23.6984" x2="100.2951" y2="8.301">
					<stop  offset="0" style="stop-color:#CCE0F4"/>
					<stop  offset="6.405089e-02" style="stop-color:#C3DCF2"/>
					<stop  offset="0.1706" style="stop-color:#A9D2EE"/>
					<stop  offset="0.3066" style="stop-color:#80C2E7"/>
					<stop  offset="0.4649" style="stop-color:#47ACDE"/>
					<stop  offset="0.5674" style="stop-color:#1E9CD7"/>
					<stop  offset="0.8652" style="stop-color:#0075BE"/>
					<stop  offset="0.9944" style="stop-color:#005B97"/>
				</linearGradient>
				<path id="XMLID_866_" class="st10" d="M105.1,23.7h-2.7v-0.6c-0.6,0.4-1.5,0.6-2.5,0.6c-0.9,0-1.7-0.2-2.3-0.6
					c-0.7-0.4-1.2-1-1.5-1.7c-0.4-0.7-0.6-1.5-0.6-2.3v-0.2c0-1.1,0.2-2,0.6-2.7c0.8-1.5,2.2-2.5,4.2-3l2.1-0.6c0-0.6-0.1-1-0.4-1.2
					c-0.3-0.2-0.6-0.4-1-0.4c-0.3,0-0.6,0.1-0.9,0.2c-0.3,0.1-0.6,0.4-0.8,0.6c-0.2,0.3-0.3,0.6-0.3,1h-2.7c0-0.8,0.2-1.6,0.6-2.2
					c0.4-0.7,0.9-1.2,1.6-1.6c0.7-0.4,1.4-0.6,2.2-0.6h0.7c0.7,0,1.3,0.1,1.8,0.4c0.5,0.2,0.8,0.6,1.1,0.9c0.3,0.4,0.5,0.8,0.6,1.2
					s0.2,0.8,0.2,1.2V23.7z M99.9,21.1c0.6,0,1.1-0.2,1.5-0.5c0.4-0.3,0.6-0.8,0.8-1.3c0.1-0.5,0.2-1.1,0.2-1.6v-2.4
					c-0.5,0.1-1.1,0.2-1.8,0.4c-1.6,0.5-2.5,1.6-2.5,3.3c0,0.6,0.1,1,0.4,1.5C98.9,20.9,99.3,21.1,99.9,21.1z"/>
				<linearGradient id="XMLID_12_" gradientUnits="userSpaceOnUse" x1="110.4249" y1="23.7376" x2="110.4249" y2="5.7129">
					<stop  offset="0" style="stop-color:#CCE0F4"/>
					<stop  offset="6.405089e-02" style="stop-color:#C3DCF2"/>
					<stop  offset="0.1706" style="stop-color:#A9D2EE"/>
					<stop  offset="0.3066" style="stop-color:#80C2E7"/>
					<stop  offset="0.4649" style="stop-color:#47ACDE"/>
					<stop  offset="0.5674" style="stop-color:#1E9CD7"/>
					<stop  offset="0.8652" style="stop-color:#0075BE"/>
					<stop  offset="0.9944" style="stop-color:#005B97"/>
				</linearGradient>
				<path id="XMLID_869_" class="st11" d="M114.1,23.7h-1.4c-1.2,0-2.3-0.4-3.1-1.3c-0.9-0.9-1.3-1.9-1.3-3.1v-5.7h-1.6v-2.7h1.6
					V5.7h2.6v5.2h3.1v2.7H111v5.7c0,0.5,0.2,0.9,0.5,1.2c0.3,0.3,0.8,0.5,1.2,0.5h1.4V23.7z"/>
			</g>
			<linearGradient id="XMLID_13_" gradientUnits="userSpaceOnUse" x1="117.0257" y1="23.7245" x2="117.0257" y2="4.4582">
				<stop  offset="0" style="stop-color:#CCE0F4"/>
				<stop  offset="6.405089e-02" style="stop-color:#C3DCF2"/>
				<stop  offset="0.1706" style="stop-color:#A9D2EE"/>
				<stop  offset="0.3066" style="stop-color:#80C2E7"/>
				<stop  offset="0.4649" style="stop-color:#47ACDE"/>
				<stop  offset="0.5674" style="stop-color:#1E9CD7"/>
				<stop  offset="0.8652" style="stop-color:#0075BE"/>
				<stop  offset="0.9944" style="stop-color:#005B97"/>
			</linearGradient>
			<path id="XMLID_871_" class="st12" d="M118.4,7.1h-2.7V4.5h2.7V7.1z M118.4,23.7h-2.7V8.3h2.7V23.7z"/>
			<linearGradient id="XMLID_14_" gradientUnits="userSpaceOnUse" x1="130.3056" y1="23.7637" x2="130.3056" y2="8.3402">
				<stop  offset="0" style="stop-color:#CCE0F4"/>
				<stop  offset="6.405089e-02" style="stop-color:#C3DCF2"/>
				<stop  offset="0.1706" style="stop-color:#A9D2EE"/>
				<stop  offset="0.3066" style="stop-color:#80C2E7"/>
				<stop  offset="0.4649" style="stop-color:#47ACDE"/>
				<stop  offset="0.5674" style="stop-color:#1E9CD7"/>
				<stop  offset="0.8652" style="stop-color:#0075BE"/>
				<stop  offset="0.9944" style="stop-color:#005B97"/>
			</linearGradient>
			<path id="XMLID_874_" class="st13" d="M140.7,23.8H138v-11c0-0.5-0.2-0.9-0.5-1.2c-0.3-0.3-0.8-0.5-1.2-0.5h-0.7
				c-0.2,0-0.4,0-0.7,0.1c-0.6,0.4-1.3,1.2-2.1,2.5c-0.8,1.3-1.5,2.7-2.2,4.1c-0.7,1.4-1.1,2.4-1.3,3.1c-0.3,0.9-0.9,1.6-1.6,2.1
				c-0.7,0.5-1.6,0.8-2.6,0.8h-0.7c-1.2,0-2.3-0.4-3.1-1.3c-0.9-0.9-1.3-1.9-1.3-3.1v-6.6c0-1.2,0.5-2.3,1.3-3.1
				c0.8-0.8,1.9-1.3,3.1-1.3h0.7c1.2,0,2.2,0.4,3.1,1.3c0.8,0.8,1.3,1.9,1.3,3.1l-0.1,0.3l-2.6,5.1v-5.4c0-0.5-0.2-0.9-0.5-1.2
				c-0.3-0.3-0.8-0.5-1.2-0.5h-0.7c-0.5,0-0.9,0.2-1.2,0.5c-0.3,0.3-0.5,0.8-0.5,1.2v6.6c0,0.5,0.2,0.9,0.5,1.2
				c0.3,0.3,0.8,0.5,1.2,0.5h0.7c0.4,0,0.7-0.1,1-0.3l0.4-0.5c0.4-0.5,0.8-1.3,1.4-2.3c0.3-0.7,0.7-1.3,1-2c0.6-1.3,1.1-2.3,1.5-3.1
				c0.2-0.4,0.5-0.8,0.7-1.3l0.1-3.3h2.6v0.4c0.5-0.2,1.1-0.4,1.8-0.4h0.7c1.2,0,2.2,0.4,3.1,1.3c0.8,0.8,1.3,1.9,1.3,3.1V23.8z
				 M133.8,23.8h-2.6l0-5.2h2.6V23.8z"/>
		</g>
		<g id="XMLID_887_">
			<linearGradient id="XMLID_15_" gradientUnits="userSpaceOnUse" x1="146.4415" y1="4.419" x2="146.4415" y2="23.6853">
				<stop  offset="0" style="stop-color:#FFF33B"/>
				<stop  offset="4.010540e-02" style="stop-color:#FEE72E"/>
				<stop  offset="0.1171" style="stop-color:#FED51B"/>
				<stop  offset="0.1964" style="stop-color:#FDCA10"/>
				<stop  offset="0.2809" style="stop-color:#FDC70C"/>
				<stop  offset="0.6685" style="stop-color:#F3903F"/>
				<stop  offset="0.8876" style="stop-color:#ED683C"/>
				<stop  offset="1" style="stop-color:#E93E3A"/>
			</linearGradient>
			<path id="XMLID_877_" class="st14" d="M144.8,23.7h-2.7V4.4h8.5v2.7h-5.9v6.1h4.1v2.7h-4.1V23.7z"/>
			<linearGradient id="XMLID_16_" gradientUnits="userSpaceOnUse" x1="153.5978" y1="4.4582" x2="153.5978" y2="23.7245">
				<stop  offset="0" style="stop-color:#FFF33B"/>
				<stop  offset="4.010540e-02" style="stop-color:#FEE72E"/>
				<stop  offset="0.1171" style="stop-color:#FED51B"/>
				<stop  offset="0.1964" style="stop-color:#FDCA10"/>
				<stop  offset="0.2809" style="stop-color:#FDC70C"/>
				<stop  offset="0.6685" style="stop-color:#F3903F"/>
				<stop  offset="0.8876" style="stop-color:#ED683C"/>
				<stop  offset="1" style="stop-color:#E93E3A"/>
			</linearGradient>
			<path id="XMLID_879_" class="st15" d="M154.9,7.1h-2.7V4.5h2.7V7.1z M154.9,23.7h-2.7V8.3h2.7V23.7z"/>
			<linearGradient id="XMLID_17_" gradientUnits="userSpaceOnUse" x1="159.8129" y1="8.301" x2="159.8129" y2="23.7245">
				<stop  offset="0" style="stop-color:#FFF33B"/>
				<stop  offset="4.010540e-02" style="stop-color:#FEE72E"/>
				<stop  offset="0.1171" style="stop-color:#FED51B"/>
				<stop  offset="0.1964" style="stop-color:#FDCA10"/>
				<stop  offset="0.2809" style="stop-color:#FDC70C"/>
				<stop  offset="0.6685" style="stop-color:#F3903F"/>
				<stop  offset="0.8876" style="stop-color:#ED683C"/>
				<stop  offset="1" style="stop-color:#E93E3A"/>
			</linearGradient>
			<path id="XMLID_882_" class="st16" d="M159.1,23.7h-2.7V8.3h2.7v1.4c0.3-0.4,0.5-0.7,0.8-0.9c0.3-0.2,0.6-0.3,1-0.4
				c0.3-0.1,0.7-0.1,1.1-0.1l1.1,0V11c-0.5,0-1,0-1.5,0.1c-0.5,0-0.9,0.1-1.3,0.3c-0.4,0.2-0.7,0.5-0.9,0.8
				c-0.2,0.4-0.3,0.9-0.3,1.6V23.7z"/>
			<linearGradient id="XMLID_18_" gradientUnits="userSpaceOnUse" x1="168.969" y1="8.301" x2="168.969" y2="23.7245">
				<stop  offset="0" style="stop-color:#FFF33B"/>
				<stop  offset="4.010540e-02" style="stop-color:#FEE72E"/>
				<stop  offset="0.1171" style="stop-color:#FED51B"/>
				<stop  offset="0.1964" style="stop-color:#FDCA10"/>
				<stop  offset="0.2809" style="stop-color:#FDC70C"/>
				<stop  offset="0.6685" style="stop-color:#F3903F"/>
				<stop  offset="0.8876" style="stop-color:#ED683C"/>
				<stop  offset="1" style="stop-color:#E93E3A"/>
			</linearGradient>
			<path id="XMLID_884_" class="st17" d="M169.3,23.7h-0.7c-1.2,0-2.3-0.4-3.1-1.3c-0.9-0.9-1.3-1.9-1.3-3.1v-6.6
				c0-1.2,0.5-2.3,1.3-3.1c0.8-0.8,1.9-1.3,3.1-1.3h0.7c1.2,0,2.2,0.4,3.1,1.3c0.8,0.8,1.3,1.9,1.3,3.1v4.4h-6.9v2.2
				c0,0.5,0.2,0.9,0.5,1.2c0.3,0.3,0.8,0.5,1.2,0.5h0.7c0.5,0,0.9-0.2,1.2-0.5c0.3-0.3,0.5-0.8,0.5-1.2v-1.1h2.7v1.1
				c0,1.2-0.4,2.3-1.3,3.1C171.6,23.3,170.5,23.7,169.3,23.7z M171.1,14.4v-1.7c0-0.5-0.2-0.9-0.5-1.2c-0.3-0.3-0.8-0.5-1.2-0.5
				h-0.7c-0.5,0-0.9,0.2-1.2,0.5c-0.3,0.3-0.5,0.8-0.5,1.2v1.7H171.1z"/>
		</g>
	</g>
</g>
</svg>
