<?xml version="1.0" encoding="utf-8"?>
<!-- Generator: Adobe Illustrator 24.0.0, SVG Export Plug-In . SVG Version: 6.00 Build 0)  -->
<svg version="1.1" id="Layer_1" xmlns="http://www.w3.org/2000/svg" xmlns:xlink="http://www.w3.org/1999/xlink" x="0px" y="0px"
	 viewBox="0 0 164 22.4" style="enable-background:new 0 0 164 22.4;" xml:space="preserve">
<style type="text/css">
	.st0{fill:url(#XMLID_2_);}
	.st1{fill:url(#XMLID_3_);}
	.st2{fill:url(#XMLID_4_);}
	.st3{fill:url(#XMLID_5_);}
	.st4{clip-path:url(#XMLID_6_);}
	.st5{fill:#2A3C46;}
	.st6{fill:url(#XMLID_7_);}
	.st7{fill:url(#XMLID_8_);}
	.st8{fill:url(#XMLID_9_);}
	.st9{fill:url(#XMLID_10_);}
	.st10{fill:url(#XMLID_11_);}
	.st11{fill:url(#XMLID_12_);}
	.st12{fill:url(#XMLID_13_);}
	.st13{fill:url(#XMLID_14_);}
	.st14{fill:url(#XMLID_15_);}
	.st15{fill:url(#XMLID_16_);}
	.st16{fill:url(#XMLID_17_);}
	.st17{fill:url(#XMLID_18_);}
</style>
<g>
	<g id="XMLID_831_">
		<g id="XMLID_828_">
			<linearGradient id="XMLID_2_" gradientUnits="userSpaceOnUse" x1="18.6343" y1="13.241" x2="31.0548" y2="13.241">
				<stop  offset="0" style="stop-color:#FFF33B"/>
				<stop  offset="4.010540e-02" style="stop-color:#FEE72E"/>
				<stop  offset="0.1171" style="stop-color:#FED51B"/>
				<stop  offset="0.1964" style="stop-color:#FDCA10"/>
				<stop  offset="0.2809" style="stop-color:#FDC70C"/>
				<stop  offset="0.6685" style="stop-color:#F3903F"/>
				<stop  offset="0.8876" style="stop-color:#ED683C"/>
				<stop  offset="1" style="stop-color:#E93E3A"/>
			</linearGradient>
			<path id="XMLID_960_" class="st0" d="M22.3,19.2c-1.2,1-2.4,2-3.6,3.1c0-6.1,0-12.1,0-18.1c3.2,0,11.8,0,12.4,0
				c0,0-3.4,3.6-3.4,3.6s-5.2,0.1-5.4,0.1c0,1.2,0,2.4,0,3.6c2.9,0,5.8,0,8.8,0c0,0.1-2.8,3.6-2.8,3.6s-5.8,0.1-6,0.1
				C22.3,16.5,22.3,17.9,22.3,19.2z"/>
			<g id="XMLID_823_">
				<linearGradient id="XMLID_3_" gradientUnits="userSpaceOnUse" x1="9.107" y1="14.8737" x2="9.107" y2="11.6275">
					<stop  offset="0" style="stop-color:#CCE0F4"/>
					<stop  offset="6.405089e-02" style="stop-color:#C3DCF2"/>
					<stop  offset="0.1706" style="stop-color:#A9D2EE"/>
					<stop  offset="0.3066" style="stop-color:#80C2E7"/>
					<stop  offset="0.4649" style="stop-color:#47ACDE"/>
					<stop  offset="0.5674" style="stop-color:#1E9CD7"/>
					<stop  offset="0.8652" style="stop-color:#0075BE"/>
					<stop  offset="0.9944" style="stop-color:#005B97"/>
				</linearGradient>
				<path id="XMLID_937_" class="st1" d="M10.7,13.3c0,0.9-0.7,1.6-1.6,1.6c-0.9,0-1.6-0.7-1.6-1.6c0-1,0.7-1.6,1.7-1.6
					C10,11.6,10.8,12.3,10.7,13.3z"/>
				<linearGradient id="XMLID_4_" gradientUnits="userSpaceOnUse" x1="9.0914" y1="22.3739" x2="9.0914" y2="4.1468">
					<stop  offset="0" style="stop-color:#CCE0F4"/>
					<stop  offset="6.405089e-02" style="stop-color:#C3DCF2"/>
					<stop  offset="0.1706" style="stop-color:#A9D2EE"/>
					<stop  offset="0.3066" style="stop-color:#80C2E7"/>
					<stop  offset="0.4649" style="stop-color:#47ACDE"/>
					<stop  offset="0.5674" style="stop-color:#1E9CD7"/>
					<stop  offset="0.8652" style="stop-color:#0075BE"/>
					<stop  offset="0.9944" style="stop-color:#005B97"/>
				</linearGradient>
				<path id="XMLID_840_" class="st2" d="M14.5,4.1c0,0.6,0,1.2,0,1.8c-2.1-1.5-4.4-2-6.9-1.6C5.1,4.6,3.2,6,1.7,8
					c-2.3,3.1-2.2,7.8,0.2,10.8c1.3,1.6,2.9,2.8,5,3.3c2.7,0.6,5.3,0.2,7.6-1.5c0,0.2,0,0.3,0,0.5c1.2,0.4,2.5,0.8,3.6,1.2
					c0-6.1,0-12.1,0-18.2C17,4.1,15.8,4.1,14.5,4.1z M15.3,14.4c0.6,0.3,0.6,0.3,0.1,1.6c-0.5,1.1-0.5,1.2-1,0.9
					c-1-0.5-2.2,0.6-1.7,1.6c0.3,0.6,0.2,0.5-1,1.1c-1.3,0.5-1.2,0.5-1.4-0.1c-0.4-1-1.8-1.1-2.3-0.1c-0.3,0.7-0.3,0.7-1.6,0.1
					C5.3,19,5.3,19,5.5,18.4c0.4-1-0.6-2-1.6-1.6c-0.6,0.3-0.6,0.3-1.1-1.1c-0.5-1.2-0.5-1.1,0.1-1.4c1.1-0.4,1-2-0.1-2.3
					c-0.5-0.1-0.5-0.2,0-1.4c0.5-1.3,0.5-1.3,1-1.1c0.5,0.3,1.1,0.2,1.5-0.2c0.4-0.4,0.5-1,0.2-1.5C5.2,7.5,5.2,7.5,6.5,7
					c1.3-0.6,1.3-0.5,1.5-0.1c0.3,1.2,2.1,1.2,2.4,0c0.1-0.5,0.2-0.5,1.4,0.1C13,7.5,13,7.5,12.8,7.9C12.5,8.3,12.6,9,13,9.4
					c0.4,0.4,1,0.5,1.4,0.2c0.5-0.3,0.5-0.3,1,1c0.5,1.3,0.5,1.3,0,1.4C14.3,12.4,14.3,13.9,15.3,14.4z"/>
			</g>
		</g>
	</g>
	<g id="XMLID_827_">
		<g id="XMLID_889_">
			<g id="XMLID_897_">
				<linearGradient id="XMLID_5_" gradientUnits="userSpaceOnUse" x1="158.661" y1="15.5711" x2="158.661" y2="3.006631e-02">
					<stop  offset="0" style="stop-color:#FF7543"/>
					<stop  offset="0.6072" style="stop-color:#FFD01F"/>
					<stop  offset="1" style="stop-color:#FFF900"/>
				</linearGradient>
				<path id="XMLID_898_" class="st3" d="M163.2,7.9c0.3,0.7-0.1,1.6-0.1,1.6c0.1-1.6-1.3-2.4-0.7-4.9c0.3-1-0.3-1.6-0.3-1.6
					c0.2,0.7-0.2,0.9-0.8,1.8s-0.3,1.9-0.3,1.9c-0.9-1-0.5-2.5-0.3-3.3c0.3-0.8-0.1-1.4-0.1-1.4c0.2,1-1.3,2.4-2.3,0.7
					s0.3-2.7,0.3-2.7c-1.6,0-2,2.1-1.9,3.2c0.2,2-0.8,2.3-0.8,2.3c0.2-0.7,0-1.3-0.3-1.7c-0.3-0.4-0.7-0.5-0.7-0.5s1,1.2-0.5,3.7
					c-0.7,1.4,0.1,2.7,0.1,2.7c-0.7-0.5-1.2,0-1.2,0c0.9,0.6,0.3,2.3,1.3,3.8c0.6,0.9,1.3,1.3,2,1.6c-1.1-0.7-1.9-2-1.9-3.4
					c0-2.2,1.8-4,4-4c2.2,0,4,1.8,4,4c0,1.5-0.8,2.8-2,3.5c1.6-0.6,2.4-1.8,2.7-2.6C164.7,9.4,163.2,7.9,163.2,7.9z"/>
			</g>
			<g id="XMLID_890_">
				<defs>
					<path id="XMLID_892_" d="M163.2,7.9c0.3,0.7-0.1,1.6-0.1,1.6c0.1-1.6-1.3-2.4-0.7-4.9c0.3-1-0.3-1.6-0.3-1.6
						c0.2,0.7-0.2,0.9-0.8,1.8s-0.3,1.9-0.3,1.9c-0.9-1-0.5-2.5-0.3-3.3c0.3-0.8-0.1-1.4-0.1-1.4c0.2,1-1.3,2.4-2.3,0.7
						s0.3-2.7,0.3-2.7c-1.6,0-2,2.1-1.9,3.2c0.2,2-0.8,2.3-0.8,2.3c0.2-0.7,0-1.3-0.3-1.7c-0.3-0.4-0.7-0.5-0.7-0.5s1,1.2-0.5,3.7
						c-0.7,1.4,0.1,2.7,0.1,2.7c-0.7-0.5-1.2,0-1.2,0c0.9,0.6,0.3,2.3,1.3,3.8c0.6,0.9,1.3,1.3,2,1.6c-1.1-0.7-1.9-2-1.9-3.4
						c0-2.2,1.8-4,4-4c2.2,0,4,1.8,4,4c0,1.5-0.8,2.8-2,3.5c1.6-0.6,2.4-1.8,2.7-2.6C164.7,9.3,163.2,7.9,163.2,7.9z"/>
				</defs>
				<clipPath id="XMLID_6_">
					<use xlink:href="#XMLID_892_"  style="overflow:visible;"/>
				</clipPath>
				<g id="XMLID_895_" class="st4">
					<path id="XMLID_896_" class="st5" d="M163.2,9.1c0.3,0.7-0.1,1.6-0.1,1.6c0.1-1.6-1.3-2.4-0.7-4.9c0.3-1-0.3-1.6-0.3-1.6
						c0.2,0.7-0.2,0.9-0.8,1.8C160.7,7,161,7.9,161,7.9c-0.9-1-0.5-2.5-0.3-3.3c0.3-0.8-0.1-1.4-0.1-1.4c0.2,1-1.3,2.4-2.3,0.7
						c-1-1.7,0.3-2.7,0.3-2.7c-1.6,0-2,2.1-1.9,3.2c0.2,2-0.8,2.3-0.8,2.3c0.2-0.7,0-1.3-0.3-1.7c-0.3-0.4-0.7-0.5-0.7-0.5
						s1,1.2-0.5,3.7c-0.7,1.4,0.1,2.7,0.1,2.7c-0.7-0.5-1.2,0-1.2,0c0.9,0.6,0.3,2.3,1.3,3.8c0.6,0.9,1.3,1.3,2,1.6
						c-1.1-0.7-1.9-2-1.9-3.4c0-2.2,1.8-4,4-4s4,1.8,4,4c0,1.5-0.8,2.8-2,3.5c1.6-0.6,2.4-1.8,2.7-2.6
						C164.7,10.6,163.2,9.1,163.2,9.1z"/>
				</g>
				<g id="XMLID_893_" class="st4">
					<path id="XMLID_894_" class="st5" d="M154.7,11.2c-0.3,0.7,0.1,1.6,0.1,1.6c-0.1-1.5,1.3-2.3,0.6-4.7c-0.3-1,0.3-1.5,0.3-1.5
						c-0.2,0.7,0.2,0.8,0.8,1.7c0.5,0.9,0.3,1.8,0.3,1.8c0.9-1,0.5-2.4,0.3-3.2c-0.3-0.8,0.1-1.3,0.1-1.3c-0.2,0.9,1.2,2.3,2.2,0.7
						c1-1.6-0.2-2.6-0.2-2.6c1.5,0,1.9,2,1.8,3.1c-0.2,1.9,0.8,2.2,0.8,2.2c-0.2-0.7,0-1.3,0.3-1.7c0.3-0.4,0.7-0.5,0.7-0.5
						s-0.9,1.1,0.5,3.6c0.7,1.3-0.1,2.6-0.1,2.6c0.7-0.5,1.2,0,1.2,0c-0.9,0.6-0.3,2.2-1.3,3.7c-0.6,0.8-1.3,1.3-2,1.6
						c1.1-0.7-5.2-0.6-4.1,0.1c-1.6-0.6-2.3-1.7-2.6-2.5C153.3,12.6,154.7,11.2,154.7,11.2z"/>
				</g>
			</g>
		</g>
		<g id="XMLID_854_">
			<g id="XMLID_852_">
				<linearGradient id="XMLID_7_" gradientUnits="userSpaceOnUse" x1="36.4988" y1="22.2309" x2="36.4988" y2="4.1576">
					<stop  offset="0" style="stop-color:#CCE0F4"/>
					<stop  offset="6.405089e-02" style="stop-color:#C3DCF2"/>
					<stop  offset="0.1706" style="stop-color:#A9D2EE"/>
					<stop  offset="0.3066" style="stop-color:#80C2E7"/>
					<stop  offset="0.4649" style="stop-color:#47ACDE"/>
					<stop  offset="0.5674" style="stop-color:#1E9CD7"/>
					<stop  offset="0.8652" style="stop-color:#0075BE"/>
					<stop  offset="0.9944" style="stop-color:#005B97"/>
				</linearGradient>
				<path id="XMLID_856_" class="st6" d="M41.9,22.2h-2.6l-0.7-3.4h-4.4l-0.7,3.4h-2.5l4-18.1h2.8L41.9,22.2z M38.2,16.3l-1.7-8.5
					l-1.7,8.5H38.2z"/>
				<linearGradient id="XMLID_8_" gradientUnits="userSpaceOnUse" x1="47.8897" y1="22.2677" x2="47.8897" y2="7.7992">
					<stop  offset="0" style="stop-color:#CCE0F4"/>
					<stop  offset="6.405089e-02" style="stop-color:#C3DCF2"/>
					<stop  offset="0.1706" style="stop-color:#A9D2EE"/>
					<stop  offset="0.3066" style="stop-color:#80C2E7"/>
					<stop  offset="0.4649" style="stop-color:#47ACDE"/>
					<stop  offset="0.5674" style="stop-color:#1E9CD7"/>
					<stop  offset="0.8652" style="stop-color:#0075BE"/>
					<stop  offset="0.9944" style="stop-color:#005B97"/>
				</linearGradient>
				<path id="XMLID_859_" class="st7" d="M52.4,22.3h-2.5v-0.3c-0.5,0.2-1.1,0.3-1.6,0.3h-0.7c-1.1,0-2.1-0.4-2.9-1.2
					c-0.8-0.8-1.2-1.8-1.2-2.9l0-10.3h2.5v10.3c0,0.4,0.2,0.8,0.5,1.2c0.3,0.3,0.7,0.5,1.2,0.5h0.7c0.4,0,0.8-0.1,1.1-0.4
					c0.3-0.3,0.5-0.6,0.5-1V7.8h2.5V22.3z"/>
				<linearGradient id="XMLID_9_" gradientUnits="userSpaceOnUse" x1="57.3126" y1="22.2677" x2="57.3126" y2="5.3592">
					<stop  offset="0" style="stop-color:#CCE0F4"/>
					<stop  offset="6.405089e-02" style="stop-color:#C3DCF2"/>
					<stop  offset="0.1706" style="stop-color:#A9D2EE"/>
					<stop  offset="0.3066" style="stop-color:#80C2E7"/>
					<stop  offset="0.4649" style="stop-color:#47ACDE"/>
					<stop  offset="0.5674" style="stop-color:#1E9CD7"/>
					<stop  offset="0.8652" style="stop-color:#0075BE"/>
					<stop  offset="0.9944" style="stop-color:#005B97"/>
				</linearGradient>
				<path id="XMLID_861_" class="st8" d="M60.8,22.3h-1.3c-1.1,0-2.1-0.4-2.9-1.2c-0.8-0.8-1.2-1.8-1.2-2.9v-5.4h-1.5v-2.5h1.5V5.4
					h2.5v4.9h2.9v2.5h-2.9v5.4c0,0.4,0.2,0.8,0.5,1.2c0.3,0.3,0.7,0.5,1.2,0.5h1.3V22.3z"/>
				<linearGradient id="XMLID_10_" gradientUnits="userSpaceOnUse" x1="75.2143" y1="22.2677" x2="75.2143" y2="7.7869">
					<stop  offset="0" style="stop-color:#CCE0F4"/>
					<stop  offset="6.405089e-02" style="stop-color:#C3DCF2"/>
					<stop  offset="0.1706" style="stop-color:#A9D2EE"/>
					<stop  offset="0.3066" style="stop-color:#80C2E7"/>
					<stop  offset="0.4649" style="stop-color:#47ACDE"/>
					<stop  offset="0.5674" style="stop-color:#1E9CD7"/>
					<stop  offset="0.8652" style="stop-color:#0075BE"/>
					<stop  offset="0.9944" style="stop-color:#005B97"/>
				</linearGradient>
				<path id="XMLID_863_" class="st9" d="M88.2,22.3h-2.5V11.9c0-0.5-0.2-0.8-0.5-1.2c-0.3-0.3-0.7-0.5-1.2-0.5h-0.7
					c-0.4,0-0.8,0.1-1.1,0.4c-0.3,0.3-0.5,0.6-0.6,1c0,0,0,0.1,0,0.1c0,0,0,3.5,0,10.5h-2.5V11.9c0-0.5-0.2-0.8-0.5-1.2
					s-0.7-0.5-1.2-0.5h-0.7c-0.2,0-0.4,0-0.6,0.1c-0.6,0.3-1.3,1.1-2,2.4c-0.7,1.2-1.4,2.5-2,3.9c-0.6,1.3-1,2.3-1.3,2.9
					c-0.3,0.8-0.8,1.5-1.5,2c-0.7,0.5-1.5,0.8-2.4,0.8h-0.7c-1.1,0-2.1-0.4-2.9-1.2c-0.8-0.8-1.2-1.8-1.2-2.9v-6.2
					c0-1.2,0.4-2.1,1.2-2.9c0.8-0.8,1.8-1.2,2.9-1.2h0.7c1.2,0,2.1,0.4,2.9,1.2c0.8,0.8,1.2,1.7,1.2,2.9l0,0.3L68.7,17v-5.1
					c0-0.5-0.2-0.8-0.5-1.2c-0.3-0.3-0.7-0.5-1.2-0.5h-0.7c-0.4,0-0.8,0.2-1.2,0.5c-0.3,0.3-0.5,0.7-0.5,1.2v6.2
					c0,0.4,0.2,0.8,0.5,1.2c0.3,0.3,0.7,0.5,1.2,0.5h0.7c0.3,0,0.5-0.1,0.7-0.2c0.4-0.2,0.8-0.8,1.3-1.6c0.5-0.9,1-1.9,1.5-3
					c0.7-1.4,1.4-2.8,2.1-4l0.1-3.1h2.5v0.4c0.5-0.2,1.1-0.4,1.6-0.4h0.7c1.1,0,2.1,0.4,2.9,1.2c0.8-0.8,1.8-1.2,2.9-1.2H84
					c1.2,0,2.1,0.4,2.9,1.2c0.8,0.8,1.2,1.7,1.2,2.9V22.3z M75.3,22.2h-2.5l0-4.9h2.5L75.3,22.2z"/>
				<linearGradient id="XMLID_11_" gradientUnits="userSpaceOnUse" x1="94.0846" y1="22.2309" x2="94.0846" y2="7.7869">
					<stop  offset="0" style="stop-color:#CCE0F4"/>
					<stop  offset="6.405089e-02" style="stop-color:#C3DCF2"/>
					<stop  offset="0.1706" style="stop-color:#A9D2EE"/>
					<stop  offset="0.3066" style="stop-color:#80C2E7"/>
					<stop  offset="0.4649" style="stop-color:#47ACDE"/>
					<stop  offset="0.5674" style="stop-color:#1E9CD7"/>
					<stop  offset="0.8652" style="stop-color:#0075BE"/>
					<stop  offset="0.9944" style="stop-color:#005B97"/>
				</linearGradient>
				<path id="XMLID_866_" class="st10" d="M98.6,22.2h-2.5v-0.5c-0.6,0.4-1.4,0.5-2.3,0.5c-0.8,0-1.5-0.2-2.2-0.6
					c-0.6-0.4-1.1-0.9-1.5-1.6c-0.3-0.7-0.5-1.4-0.5-2.2v-0.2c0-1,0.2-1.9,0.6-2.6c0.7-1.4,2-2.3,3.9-2.8l2-0.5
					c0-0.5-0.1-0.9-0.4-1.1c-0.3-0.2-0.6-0.3-0.9-0.3c-0.3,0-0.6,0.1-0.9,0.2c-0.3,0.1-0.5,0.3-0.7,0.6c-0.2,0.3-0.3,0.6-0.3,0.9
					h-2.5c0-0.8,0.2-1.5,0.6-2.1c0.4-0.6,0.9-1.1,1.5-1.5C93,8,93.7,7.8,94.5,7.8h0.6c0.7,0,1.2,0.1,1.7,0.3
					c0.4,0.2,0.8,0.5,1.1,0.9c0.3,0.4,0.5,0.7,0.6,1.1c0.1,0.4,0.2,0.8,0.2,1.1V22.2z M93.7,19.8c0.6,0,1.1-0.2,1.4-0.5
					c0.3-0.3,0.6-0.7,0.7-1.2c0.1-0.5,0.2-1,0.2-1.5v-2.2c-0.5,0.1-1,0.2-1.6,0.4c-1.5,0.5-2.3,1.5-2.4,3.1c0,0.5,0.1,1,0.4,1.4
					C92.8,19.6,93.2,19.8,93.7,19.8z"/>
				<linearGradient id="XMLID_12_" gradientUnits="userSpaceOnUse" x1="103.5872" y1="22.2677" x2="103.5872" y2="5.3592">
					<stop  offset="0" style="stop-color:#CCE0F4"/>
					<stop  offset="6.405089e-02" style="stop-color:#C3DCF2"/>
					<stop  offset="0.1706" style="stop-color:#A9D2EE"/>
					<stop  offset="0.3066" style="stop-color:#80C2E7"/>
					<stop  offset="0.4649" style="stop-color:#47ACDE"/>
					<stop  offset="0.5674" style="stop-color:#1E9CD7"/>
					<stop  offset="0.8652" style="stop-color:#0075BE"/>
					<stop  offset="0.9944" style="stop-color:#005B97"/>
				</linearGradient>
				<path id="XMLID_869_" class="st11" d="M107.1,22.3h-1.3c-1.1,0-2.1-0.4-2.9-1.2c-0.8-0.8-1.2-1.8-1.2-2.9v-5.4h-1.5v-2.5h1.5
					V5.4h2.5v4.9h2.9v2.5h-2.9v5.4c0,0.4,0.2,0.8,0.5,1.2c0.3,0.3,0.7,0.5,1.2,0.5h1.3V22.3z"/>
			</g>
			<linearGradient id="XMLID_13_" gradientUnits="userSpaceOnUse" x1="109.7792" y1="22.2554" x2="109.7792" y2="4.1821">
				<stop  offset="0" style="stop-color:#CCE0F4"/>
				<stop  offset="6.405089e-02" style="stop-color:#C3DCF2"/>
				<stop  offset="0.1706" style="stop-color:#A9D2EE"/>
				<stop  offset="0.3066" style="stop-color:#80C2E7"/>
				<stop  offset="0.4649" style="stop-color:#47ACDE"/>
				<stop  offset="0.5674" style="stop-color:#1E9CD7"/>
				<stop  offset="0.8652" style="stop-color:#0075BE"/>
				<stop  offset="0.9944" style="stop-color:#005B97"/>
			</linearGradient>
			<path id="XMLID_871_" class="st12" d="M111,6.7h-2.5V4.2h2.5V6.7z M111,22.3h-2.5V7.8h2.5V22.3z"/>
			<linearGradient id="XMLID_14_" gradientUnits="userSpaceOnUse" x1="122.2368" y1="22.2922" x2="122.2368" y2="7.8237">
				<stop  offset="0" style="stop-color:#CCE0F4"/>
				<stop  offset="6.405089e-02" style="stop-color:#C3DCF2"/>
				<stop  offset="0.1706" style="stop-color:#A9D2EE"/>
				<stop  offset="0.3066" style="stop-color:#80C2E7"/>
				<stop  offset="0.4649" style="stop-color:#47ACDE"/>
				<stop  offset="0.5674" style="stop-color:#1E9CD7"/>
				<stop  offset="0.8652" style="stop-color:#0075BE"/>
				<stop  offset="0.9944" style="stop-color:#005B97"/>
			</linearGradient>
			<path id="XMLID_874_" class="st13" d="M132,22.3h-2.5V12c0-0.5-0.2-0.8-0.5-1.2c-0.3-0.3-0.7-0.5-1.2-0.5h-0.7
				c-0.2,0-0.4,0-0.6,0.1c-0.6,0.3-1.3,1.1-2,2.4c-0.7,1.2-1.4,2.5-2,3.9c-0.6,1.3-1,2.3-1.3,2.9c-0.3,0.8-0.8,1.5-1.5,2
				c-0.7,0.5-1.5,0.8-2.4,0.8h-0.7c-1.1,0-2.1-0.4-2.9-1.2c-0.8-0.8-1.2-1.8-1.2-2.9v-6.2c0-1.2,0.5-2.1,1.3-2.9
				c0.8-0.8,1.8-1.2,2.9-1.2h0.7c1.1,0,2.1,0.4,2.9,1.2c0.8,0.8,1.2,1.8,1.3,2.9l0,0.3L119,17V12c0-0.5-0.2-0.8-0.5-1.2
				c-0.3-0.3-0.7-0.5-1.2-0.5h-0.7c-0.4,0-0.8,0.2-1.2,0.5c-0.3,0.3-0.5,0.7-0.5,1.2v6.2c0,0.4,0.2,0.8,0.5,1.2
				c0.3,0.3,0.7,0.5,1.2,0.5h0.7c0.4,0,0.7-0.1,0.9-0.3l0.4-0.4c0.4-0.5,0.8-1.2,1.3-2.2c0.3-0.6,0.6-1.2,0.9-1.9
				c0.6-1.2,1.1-2.2,1.4-2.9c0.2-0.4,0.4-0.8,0.7-1.2l0.1-3.1h2.5v0.3c0.5-0.2,1.1-0.3,1.7-0.3h0.7c1.1,0,2.1,0.4,2.9,1.2
				c0.8,0.8,1.2,1.8,1.2,2.9V22.3z M125.5,22.3H123l0-4.9h2.5V22.3z"/>
		</g>
		<g id="XMLID_887_">
			<linearGradient id="XMLID_15_" gradientUnits="userSpaceOnUse" x1="137.3736" y1="4.1453" x2="137.3736" y2="22.2186">
				<stop  offset="0" style="stop-color:#FFF33B"/>
				<stop  offset="4.010540e-02" style="stop-color:#FEE72E"/>
				<stop  offset="0.1171" style="stop-color:#FED51B"/>
				<stop  offset="0.1964" style="stop-color:#FDCA10"/>
				<stop  offset="0.2809" style="stop-color:#FDC70C"/>
				<stop  offset="0.6685" style="stop-color:#F3903F"/>
				<stop  offset="0.8876" style="stop-color:#ED683C"/>
				<stop  offset="1" style="stop-color:#E93E3A"/>
			</linearGradient>
			<path id="XMLID_877_" class="st14" d="M135.9,22.2h-2.5V4.1h8v2.5h-5.5v5.7h3.9v2.5h-3.9V22.2z"/>
			<linearGradient id="XMLID_16_" gradientUnits="userSpaceOnUse" x1="144.0867" y1="4.1821" x2="144.0867" y2="22.2554">
				<stop  offset="0" style="stop-color:#FFF33B"/>
				<stop  offset="4.010540e-02" style="stop-color:#FEE72E"/>
				<stop  offset="0.1171" style="stop-color:#FED51B"/>
				<stop  offset="0.1964" style="stop-color:#FDCA10"/>
				<stop  offset="0.2809" style="stop-color:#FDC70C"/>
				<stop  offset="0.6685" style="stop-color:#F3903F"/>
				<stop  offset="0.8876" style="stop-color:#ED683C"/>
				<stop  offset="1" style="stop-color:#E93E3A"/>
			</linearGradient>
			<path id="XMLID_879_" class="st15" d="M145.3,6.7h-2.5V4.2h2.5V6.7z M145.3,22.3h-2.5V7.8h2.5V22.3z"/>
			<linearGradient id="XMLID_17_" gradientUnits="userSpaceOnUse" x1="149.917" y1="7.7869" x2="149.917" y2="22.2554">
				<stop  offset="0" style="stop-color:#FFF33B"/>
				<stop  offset="4.010540e-02" style="stop-color:#FEE72E"/>
				<stop  offset="0.1171" style="stop-color:#FED51B"/>
				<stop  offset="0.1964" style="stop-color:#FDCA10"/>
				<stop  offset="0.2809" style="stop-color:#FDC70C"/>
				<stop  offset="0.6685" style="stop-color:#F3903F"/>
				<stop  offset="0.8876" style="stop-color:#ED683C"/>
				<stop  offset="1" style="stop-color:#E93E3A"/>
			</linearGradient>
			<path id="XMLID_882_" class="st16" d="M149.3,22.3h-2.5V7.8h2.5v1.3c0.2-0.4,0.5-0.7,0.8-0.9c0.3-0.2,0.6-0.3,0.9-0.4
				c0.3-0.1,0.7-0.1,1.1-0.1l1,0v2.5c-0.5,0-0.9,0-1.4,0.1c-0.4,0-0.8,0.1-1.2,0.3c-0.4,0.2-0.6,0.4-0.9,0.8
				c-0.2,0.4-0.3,0.9-0.3,1.5V22.3z"/>
			<linearGradient id="XMLID_18_" gradientUnits="userSpaceOnUse" x1="158.5061" y1="7.7869" x2="158.5061" y2="22.2554">
				<stop  offset="0" style="stop-color:#FFF33B"/>
				<stop  offset="4.010540e-02" style="stop-color:#FEE72E"/>
				<stop  offset="0.1171" style="stop-color:#FED51B"/>
				<stop  offset="0.1964" style="stop-color:#FDCA10"/>
				<stop  offset="0.2809" style="stop-color:#FDC70C"/>
				<stop  offset="0.6685" style="stop-color:#F3903F"/>
				<stop  offset="0.8876" style="stop-color:#ED683C"/>
				<stop  offset="1" style="stop-color:#E93E3A"/>
			</linearGradient>
			<path id="XMLID_884_" class="st17" d="M158.8,22.3h-0.7c-1.1,0-2.1-0.4-2.9-1.2c-0.8-0.8-1.2-1.8-1.2-2.9v-6.2
				c0-1.2,0.4-2.1,1.2-2.9c0.8-0.8,1.8-1.2,2.9-1.2h0.7c1.1,0,2.1,0.4,2.9,1.2c0.8,0.8,1.2,1.8,1.3,2.9V16h-6.5v2.1
				c0,0.4,0.2,0.8,0.5,1.2c0.3,0.3,0.7,0.5,1.2,0.5h0.7c0.5,0,0.8-0.2,1.2-0.5c0.3-0.3,0.5-0.7,0.5-1.2v-1h2.5v1
				c0,1.1-0.4,2.1-1.2,2.9C161,21.8,160,22.3,158.8,22.3z M160.5,13.5v-1.6c0-0.4-0.2-0.8-0.5-1.2c-0.3-0.3-0.7-0.5-1.2-0.5h-0.7
				c-0.5,0-0.8,0.2-1.2,0.5c-0.3,0.3-0.5,0.7-0.5,1.2v1.6H160.5z"/>
		</g>
	</g>
</g>
</svg>
