<?xml version="1.0" encoding="utf-8"?>
<!-- Generator: Adobe Illustrator 24.0.0, SVG Export Plug-In . SVG Version: 6.00 Build 0)  -->
<svg version="1.1" id="Layer_1" xmlns="http://www.w3.org/2000/svg" xmlns:xlink="http://www.w3.org/1999/xlink" x="0px" y="0px"
	 viewBox="0 0 269.2 36.7" style="enable-background:new 0 0 269.2 36.7;" xml:space="preserve">
<style type="text/css">
	.st0{fill:url(#XMLID_2_);}
	.st1{fill:url(#XMLID_3_);}
	.st2{fill:url(#XMLID_4_);}
	.st3{fill:url(#XMLID_5_);}
	.st4{clip-path:url(#XMLID_6_);}
	.st5{fill:#2A3C46;}
	.st6{fill:url(#XMLID_7_);}
	.st7{fill:url(#XMLID_8_);}
	.st8{fill:url(#XMLID_9_);}
	.st9{fill:url(#XMLID_10_);}
	.st10{fill:url(#XMLID_11_);}
	.st11{fill:url(#XMLID_12_);}
	.st12{fill:url(#XMLID_13_);}
	.st13{fill:url(#XMLID_14_);}
	.st14{fill:url(#XMLID_15_);}
	.st15{fill:url(#XMLID_16_);}
	.st16{fill:url(#XMLID_17_);}
	.st17{fill:url(#XMLID_18_);}
</style>
<g>
	<g id="XMLID_831_">
		<g id="XMLID_828_">
			<linearGradient id="XMLID_2_" gradientUnits="userSpaceOnUse" x1="30.5919" y1="21.7377" x2="50.9825" y2="21.7377">
				<stop  offset="0" style="stop-color:#FFF33B"/>
				<stop  offset="4.010540e-02" style="stop-color:#FEE72E"/>
				<stop  offset="0.1171" style="stop-color:#FED51B"/>
				<stop  offset="0.1964" style="stop-color:#FDCA10"/>
				<stop  offset="0.2809" style="stop-color:#FDC70C"/>
				<stop  offset="0.6685" style="stop-color:#F3903F"/>
				<stop  offset="0.8876" style="stop-color:#ED683C"/>
				<stop  offset="1" style="stop-color:#E93E3A"/>
			</linearGradient>
			<path id="XMLID_960_" class="st0" d="M36.5,31.6c-2,1.7-3.9,3.3-5.9,5c0-10,0-19.8,0-29.8c5.2,0,19.4,0,20.3,0
				c0,0-5.6,5.8-5.6,5.8s-8.6,0.1-8.8,0.1c0,2,0,3.9,0,5.9c4.8,0,9.6,0,14.4,0c-0.1,0.1-4.7,5.9-4.7,5.9s-9.6,0.1-9.8,0.1
				C36.5,27.1,36.5,29.3,36.5,31.6z"/>
			<g id="XMLID_823_">
				<linearGradient id="XMLID_3_" gradientUnits="userSpaceOnUse" x1="14.9509" y1="24.4181" x2="14.9509" y2="19.0888">
					<stop  offset="0" style="stop-color:#CCE0F4"/>
					<stop  offset="6.405089e-02" style="stop-color:#C3DCF2"/>
					<stop  offset="0.1706" style="stop-color:#A9D2EE"/>
					<stop  offset="0.3066" style="stop-color:#80C2E7"/>
					<stop  offset="0.4649" style="stop-color:#47ACDE"/>
					<stop  offset="0.5674" style="stop-color:#1E9CD7"/>
					<stop  offset="0.8652" style="stop-color:#0075BE"/>
					<stop  offset="0.9944" style="stop-color:#005B97"/>
				</linearGradient>
				<path id="XMLID_937_" class="st1" d="M17.6,21.8c0,1.5-1.2,2.6-2.7,2.6c-1.5,0-2.7-1.1-2.7-2.7c0-1.6,1.2-2.7,2.7-2.7
					C16.4,19.1,17.7,20.3,17.6,21.8z"/>
				<linearGradient id="XMLID_4_" gradientUnits="userSpaceOnUse" x1="14.9254" y1="36.7311" x2="14.9254" y2="6.8078">
					<stop  offset="0" style="stop-color:#CCE0F4"/>
					<stop  offset="6.405089e-02" style="stop-color:#C3DCF2"/>
					<stop  offset="0.1706" style="stop-color:#A9D2EE"/>
					<stop  offset="0.3066" style="stop-color:#80C2E7"/>
					<stop  offset="0.4649" style="stop-color:#47ACDE"/>
					<stop  offset="0.5674" style="stop-color:#1E9CD7"/>
					<stop  offset="0.8652" style="stop-color:#0075BE"/>
					<stop  offset="0.9944" style="stop-color:#005B97"/>
				</linearGradient>
				<path id="XMLID_840_" class="st2" d="M23.8,6.8c0,1,0,1.9,0,2.9C20.4,7.2,16.6,6.4,12.5,7c-4.2,0.6-7.3,2.8-9.8,6.1
					C-1,18.2-0.9,25.8,3.1,30.8c2.2,2.7,4.8,4.7,8.2,5.4c4.5,1,8.7,0.3,12.6-2.4c0,0.3,0,0.6,0,0.9c2,0.7,4,1.3,6,2
					c0-10,0-19.9,0-29.9C27.9,6.8,26,6.8,23.8,6.8z M25.1,23.6c1.1,0.4,1,0.5,0.1,2.6c-0.8,1.9-0.8,1.9-1.6,1.5
					c-1.7-0.9-3.6,0.9-2.7,2.7c0.5,1,0.4,0.9-1.7,1.8C17.1,33,17.2,33,16.8,32c-0.6-1.7-2.9-1.8-3.7-0.2c-0.5,1.1-0.5,1.1-2.6,0.2
					c-1.9-0.8-1.9-0.8-1.5-1.7c0.7-1.7-1-3.4-2.7-2.6c-1,0.4-1,0.4-1.9-1.8c-0.7-1.9-0.8-1.9,0.2-2.2c1.9-0.7,1.7-3.3-0.2-3.8
					c-0.8-0.2-0.8-0.3,0-2.3c0.9-2.2,0.9-2.2,1.6-1.8c0.8,0.5,1.8,0.4,2.5-0.3c0.7-0.7,0.8-1.7,0.3-2.4c-0.4-0.7-0.4-0.7,1.7-1.5
					c2.2-0.9,2.2-0.9,2.4-0.1c0.5,2,3.4,2,3.9,0c0.2-0.7,0.2-0.8,2.3,0.1c2.1,0.9,2.1,0.9,1.8,1.5c-0.5,0.8-0.4,1.8,0.3,2.5
					c0.6,0.6,1.6,0.8,2.4,0.4c0.8-0.4,0.8-0.4,1.7,1.7c0.9,2.1,0.9,2.1,0,2.4C23.5,20.4,23.4,22.9,25.1,23.6z"/>
			</g>
		</g>
	</g>
	<g id="XMLID_827_">
		<g id="XMLID_889_">
			<g id="XMLID_897_">
				<linearGradient id="XMLID_5_" gradientUnits="userSpaceOnUse" x1="260.4733" y1="25.563" x2="260.4733" y2="4.935977e-02">
					<stop  offset="0" style="stop-color:#FF7543"/>
					<stop  offset="0.6072" style="stop-color:#FFD01F"/>
					<stop  offset="1" style="stop-color:#FFF900"/>
				</linearGradient>
				<path id="XMLID_898_" class="st3" d="M268,13c0.4,1.2-0.2,2.7-0.2,2.7c0.1-2.6-2.2-3.9-1.1-8c0.5-1.7-0.5-2.6-0.5-2.6
					c0.3,1.1-0.4,1.4-1.3,2.9c-0.9,1.5-0.4,3-0.4,3c-1.6-1.7-0.9-4-0.4-5.4c0.5-1.4-0.2-2.3-0.2-2.3c0.3,1.6-2.1,3.9-3.7,1.2
					s0.4-4.5,0.4-4.5c-2.6,0.1-3.2,3.4-3.1,5.3c0.3,3.2-1.4,3.7-1.4,3.7c0.3-1.1,0-2.2-0.6-2.8c-0.5-0.6-1.2-0.8-1.2-0.8
					s1.6,1.9-0.8,6.1c-1.2,2.2,0.2,4.5,0.2,4.5c-1.1-0.8-2,0-2,0c1.5,1.1,0.4,3.8,2.2,6.2c1,1.4,2.2,2.2,3.3,2.7
					c-1.8-1.2-3.1-3.2-3.1-5.6c0-3.7,3-6.6,6.6-6.6s6.6,3,6.6,6.6c0,2.4-1.3,4.6-3.3,5.7c2.6-1,3.9-3,4.4-4.3
					C270.4,15.4,268,13,268,13z"/>
			</g>
			<g id="XMLID_890_">
				<defs>
					<path id="XMLID_892_" d="M268,13c0.4,1.2-0.2,2.7-0.2,2.7c0.1-2.6-2.2-3.9-1.1-8c0.5-1.7-0.5-2.6-0.5-2.6
						c0.3,1.1-0.4,1.4-1.3,2.9c-0.9,1.5-0.4,3-0.4,3c-1.6-1.7-0.9-4-0.4-5.4c0.5-1.4-0.2-2.3-0.2-2.3c0.3,1.6-2.1,3.9-3.7,1.2
						s0.4-4.5,0.4-4.5c-2.6,0.1-3.2,3.4-3.1,5.3c0.3,3.2-1.4,3.7-1.4,3.7c0.3-1.1,0-2.2-0.6-2.8c-0.5-0.6-1.2-0.8-1.2-0.8
						s1.6,1.9-0.8,6.1c-1.2,2.2,0.2,4.5,0.2,4.5c-1.1-0.8-2,0-2,0c1.5,1.1,0.4,3.8,2.2,6.2c1,1.4,2.2,2.2,3.3,2.7
						c-1.8-1.2-3.1-3.2-3.1-5.6c0-3.6,3-6.6,6.6-6.6s6.6,3,6.6,6.6c0,2.4-1.3,4.6-3.3,5.7c2.6-1,3.9-3,4.4-4.3
						C270.4,15.3,268,13,268,13z"/>
				</defs>
				<clipPath id="XMLID_6_">
					<use xlink:href="#XMLID_892_"  style="overflow:visible;"/>
				</clipPath>
				<g id="XMLID_895_" class="st4">
					<path id="XMLID_896_" class="st5" d="M267.9,15c0.4,1.2-0.2,2.7-0.2,2.7c0.1-2.6-2.2-3.9-1.1-8C267,8,266.1,7,266.1,7
						c0.3,1.1-0.4,1.4-1.3,2.9s-0.4,3-0.4,3c-1.6-1.7-0.9-4-0.4-5.4s-0.2-2.3-0.2-2.3c0.3,1.6-2.1,3.9-3.7,1.2
						c-1.6-2.7,0.4-4.5,0.4-4.5c-2.6,0.1-3.2,3.4-3.1,5.3c0.3,3.2-1.4,3.7-1.4,3.7c0.3-1.1,0-2.2-0.6-2.8c-0.5-0.6-1.2-0.8-1.2-0.8
						s1.6,1.9-0.8,6.1c-1.2,2.2,0.2,4.5,0.2,4.5c-1.1-0.8-2,0-2,0c1.5,1.1,0.4,3.8,2.2,6.2c1,1.4,2.2,2.2,3.3,2.7
						c-1.8-1.2-3.1-3.2-3.1-5.6c0-3.6,3-6.6,6.6-6.6c3.7,0,6.6,3,6.6,6.6c0,2.4-1.3,4.6-3.3,5.7c2.6-1,3.9-3,4.4-4.3
						C270.3,17.4,267.9,15,267.9,15z"/>
				</g>
				<g id="XMLID_893_" class="st4">
					<path id="XMLID_894_" class="st5" d="M254,18.4c-0.4,1.1,0.2,2.6,0.2,2.6c-0.1-2.5,2.1-3.8,1.1-7.8c-0.4-1.6,0.5-2.5,0.5-2.5
						c-0.3,1.1,0.4,1.4,1.2,2.8c0.9,1.4,0.4,2.9,0.4,2.9c1.5-1.6,0.9-3.9,0.4-5.3C257.4,9.9,258,9,258,9c-0.3,1.6,2,3.8,3.6,1.2
						c1.6-2.6-0.4-4.3-0.4-4.3c2.5,0.1,3.1,3.3,3,5.1c-0.3,3.1,1.3,3.6,1.3,3.6c-0.3-1.1,0-2.1,0.5-2.7c0.5-0.6,1.2-0.8,1.2-0.8
						s-1.5,1.9,0.7,6c1.2,2.2-0.2,4.3-0.2,4.3c1.1-0.8,1.9,0,1.9,0c-1.4,1-0.4,3.6-2.1,6c-1,1.4-2.1,2.1-3.2,2.6
						c1.8-1.1-8.5-1-6.6,0.1c-2.6-0.9-3.8-2.9-4.2-4.1C251.6,20.7,254,18.4,254,18.4z"/>
				</g>
			</g>
		</g>
		<g id="XMLID_854_">
			<g id="XMLID_852_">
				<linearGradient id="XMLID_7_" gradientUnits="userSpaceOnUse" x1="59.92" y1="36.4964" x2="59.92" y2="6.8255">
					<stop  offset="0" style="stop-color:#CCE0F4"/>
					<stop  offset="6.405089e-02" style="stop-color:#C3DCF2"/>
					<stop  offset="0.1706" style="stop-color:#A9D2EE"/>
					<stop  offset="0.3066" style="stop-color:#80C2E7"/>
					<stop  offset="0.4649" style="stop-color:#47ACDE"/>
					<stop  offset="0.5674" style="stop-color:#1E9CD7"/>
					<stop  offset="0.8652" style="stop-color:#0075BE"/>
					<stop  offset="0.9944" style="stop-color:#005B97"/>
				</linearGradient>
				<path id="XMLID_856_" class="st6" d="M68.9,36.5h-4.2l-1.1-5.6h-7.3l-1.1,5.6H51l6.6-29.7h4.7L68.9,36.5z M62.7,26.8l-2.8-13.9
					l-2.8,13.9H62.7z"/>
				<linearGradient id="XMLID_8_" gradientUnits="userSpaceOnUse" x1="78.6204" y1="36.5568" x2="78.6204" y2="12.8039">
					<stop  offset="0" style="stop-color:#CCE0F4"/>
					<stop  offset="6.405089e-02" style="stop-color:#C3DCF2"/>
					<stop  offset="0.1706" style="stop-color:#A9D2EE"/>
					<stop  offset="0.3066" style="stop-color:#80C2E7"/>
					<stop  offset="0.4649" style="stop-color:#47ACDE"/>
					<stop  offset="0.5674" style="stop-color:#1E9CD7"/>
					<stop  offset="0.8652" style="stop-color:#0075BE"/>
					<stop  offset="0.9944" style="stop-color:#005B97"/>
				</linearGradient>
				<path id="XMLID_859_" class="st7" d="M86,36.6h-4.1V36c-0.8,0.4-1.7,0.6-2.7,0.6h-1.1c-1.9,0-3.4-0.7-4.8-2
					c-1.3-1.3-2-2.9-2-4.8l0-17h4.1v17c0,0.7,0.3,1.4,0.8,1.9c0.5,0.5,1.2,0.8,1.9,0.8h1.1c0.7,0,1.3-0.2,1.8-0.7
					c0.5-0.4,0.8-1,0.9-1.7V12.8H86V36.6z"/>
				<linearGradient id="XMLID_9_" gradientUnits="userSpaceOnUse" x1="94.0899" y1="36.5568" x2="94.0899" y2="8.7982">
					<stop  offset="0" style="stop-color:#CCE0F4"/>
					<stop  offset="6.405089e-02" style="stop-color:#C3DCF2"/>
					<stop  offset="0.1706" style="stop-color:#A9D2EE"/>
					<stop  offset="0.3066" style="stop-color:#80C2E7"/>
					<stop  offset="0.4649" style="stop-color:#47ACDE"/>
					<stop  offset="0.5674" style="stop-color:#1E9CD7"/>
					<stop  offset="0.8652" style="stop-color:#0075BE"/>
					<stop  offset="0.9944" style="stop-color:#005B97"/>
				</linearGradient>
				<path id="XMLID_861_" class="st8" d="M99.8,36.6h-2.2c-1.9,0-3.5-0.7-4.8-2c-1.3-1.3-2-2.9-2-4.8v-8.8h-2.5v-4.1h2.5V8.8h4.1
					v8.1h4.8v4.1h-4.8v8.8c0,0.7,0.3,1.4,0.8,1.9c0.5,0.5,1.2,0.8,1.9,0.8h2.2V36.6z"/>
				<linearGradient id="XMLID_10_" gradientUnits="userSpaceOnUse" x1="123.4791" y1="36.5568" x2="123.4791" y2="12.7838">
					<stop  offset="0" style="stop-color:#CCE0F4"/>
					<stop  offset="6.405089e-02" style="stop-color:#C3DCF2"/>
					<stop  offset="0.1706" style="stop-color:#A9D2EE"/>
					<stop  offset="0.3066" style="stop-color:#80C2E7"/>
					<stop  offset="0.4649" style="stop-color:#47ACDE"/>
					<stop  offset="0.5674" style="stop-color:#1E9CD7"/>
					<stop  offset="0.8652" style="stop-color:#0075BE"/>
					<stop  offset="0.9944" style="stop-color:#005B97"/>
				</linearGradient>
				<path id="XMLID_863_" class="st9" d="M144.7,36.6h-4.1v-17c0-0.8-0.3-1.4-0.8-1.9c-0.5-0.5-1.2-0.8-1.9-0.8h-1.1
					c-0.7,0-1.3,0.2-1.8,0.7c-0.5,0.4-0.8,1-0.9,1.7c0,0.1,0,0.1,0,0.2c0,0.1,0,5.8,0,17.2h-4.1v-17c0-0.8-0.3-1.4-0.8-1.9
					c-0.5-0.5-1.2-0.8-1.9-0.8h-1.1c-0.3,0-0.7,0.1-1,0.2c-1,0.5-2.1,1.8-3.3,3.9c-1.2,2-2.3,4.2-3.4,6.4c-1,2.2-1.7,3.8-2.1,4.8
					c-0.5,1.3-1.3,2.4-2.5,3.3c-1.1,0.8-2.5,1.3-3.9,1.3H109c-1.9,0-3.5-0.7-4.8-2c-1.3-1.3-2-2.9-2-4.8V19.5c0.1-1.9,0.7-3.5,2-4.8
					c1.3-1.3,2.9-2,4.8-2h1.1c1.9,0.1,3.5,0.7,4.8,2c1.3,1.3,2,2.9,2,4.8l-0.1,0.5l-4,7.9v-8.3c0-0.8-0.3-1.4-0.8-1.9
					c-0.5-0.5-1.2-0.8-1.9-0.8H109c-0.7,0-1.4,0.3-1.9,0.8c-0.5,0.5-0.8,1.2-0.8,1.9v10.2c0,0.7,0.3,1.4,0.8,1.9
					c0.5,0.5,1.2,0.8,1.9,0.8h1.1c0.4,0,0.8-0.1,1.2-0.3c0.6-0.4,1.3-1.3,2.1-2.7c0.8-1.4,1.6-3.1,2.5-4.9c1.1-2.3,2.2-4.6,3.4-6.6
					l0.1-5.2h4.1v0.6c0.8-0.4,1.7-0.6,2.7-0.6h1.1c1.9,0.1,3.5,0.7,4.7,2c1.3-1.3,2.9-2,4.8-2h1.1c1.9,0.1,3.5,0.7,4.8,2
					c1.3,1.3,2,2.9,2,4.8V36.6z M123.5,36.5h-4.1l0-8h4L123.5,36.5z"/>
				<linearGradient id="XMLID_11_" gradientUnits="userSpaceOnUse" x1="154.4584" y1="36.4964" x2="154.4584" y2="12.7838">
					<stop  offset="0" style="stop-color:#CCE0F4"/>
					<stop  offset="6.405089e-02" style="stop-color:#C3DCF2"/>
					<stop  offset="0.1706" style="stop-color:#A9D2EE"/>
					<stop  offset="0.3066" style="stop-color:#80C2E7"/>
					<stop  offset="0.4649" style="stop-color:#47ACDE"/>
					<stop  offset="0.5674" style="stop-color:#1E9CD7"/>
					<stop  offset="0.8652" style="stop-color:#0075BE"/>
					<stop  offset="0.9944" style="stop-color:#005B97"/>
				</linearGradient>
				<path id="XMLID_866_" class="st10" d="M161.8,36.5h-4.1v-0.9c-1,0.6-2.3,0.9-3.8,0.9c-1.4,0-2.5-0.3-3.6-1
					c-1-0.7-1.8-1.5-2.4-2.6c-0.6-1.1-0.9-2.3-0.9-3.6V29c0-1.6,0.3-3,0.9-4.2c1.2-2.3,3.4-3.8,6.4-4.6l3.3-0.9
					c0-0.9-0.2-1.5-0.7-1.9c-0.4-0.4-1-0.6-1.5-0.6c-0.5,0-1,0.1-1.4,0.3c-0.5,0.2-0.9,0.6-1.2,1c-0.3,0.4-0.5,0.9-0.5,1.5h-4.1
					c0-1.3,0.3-2.4,0.9-3.5c0.6-1,1.4-1.9,2.5-2.5c1-0.6,2.2-0.9,3.4-0.9h1c1.1,0,2,0.2,2.7,0.6c0.7,0.4,1.3,0.9,1.7,1.4
					c0.4,0.6,0.7,1.2,0.9,1.9c0.2,0.7,0.3,1.3,0.3,1.9V36.5z M153.9,32.4c1,0,1.8-0.3,2.3-0.8c0.6-0.5,0.9-1.2,1.2-2
					c0.2-0.8,0.3-1.6,0.3-2.5v-3.7c-0.8,0.1-1.7,0.4-2.7,0.7c-2.5,0.8-3.8,2.5-3.9,5.1c0,0.9,0.2,1.6,0.7,2.2
					C152.3,32.1,153,32.4,153.9,32.4z"/>
				<linearGradient id="XMLID_12_" gradientUnits="userSpaceOnUse" x1="170.0588" y1="36.5568" x2="170.0588" y2="8.7982">
					<stop  offset="0" style="stop-color:#CCE0F4"/>
					<stop  offset="6.405089e-02" style="stop-color:#C3DCF2"/>
					<stop  offset="0.1706" style="stop-color:#A9D2EE"/>
					<stop  offset="0.3066" style="stop-color:#80C2E7"/>
					<stop  offset="0.4649" style="stop-color:#47ACDE"/>
					<stop  offset="0.5674" style="stop-color:#1E9CD7"/>
					<stop  offset="0.8652" style="stop-color:#0075BE"/>
					<stop  offset="0.9944" style="stop-color:#005B97"/>
				</linearGradient>
				<path id="XMLID_869_" class="st11" d="M175.8,36.6h-2.2c-1.9,0-3.5-0.7-4.8-2c-1.3-1.3-2-2.9-2-4.8v-8.8h-2.5v-4.1h2.5V8.8h4.1
					v8.1h4.8v4.1h-4.8v8.8c0,0.7,0.3,1.4,0.8,1.9c0.5,0.5,1.2,0.8,1.9,0.8h2.2V36.6z"/>
			</g>
			<linearGradient id="XMLID_13_" gradientUnits="userSpaceOnUse" x1="180.2242" y1="36.5367" x2="180.2242" y2="6.8658">
				<stop  offset="0" style="stop-color:#CCE0F4"/>
				<stop  offset="6.405089e-02" style="stop-color:#C3DCF2"/>
				<stop  offset="0.1706" style="stop-color:#A9D2EE"/>
				<stop  offset="0.3066" style="stop-color:#80C2E7"/>
				<stop  offset="0.4649" style="stop-color:#47ACDE"/>
				<stop  offset="0.5674" style="stop-color:#1E9CD7"/>
				<stop  offset="0.8652" style="stop-color:#0075BE"/>
				<stop  offset="0.9944" style="stop-color:#005B97"/>
			</linearGradient>
			<path id="XMLID_871_" class="st12" d="M182.3,10.9h-4.1V6.9h4.1V10.9z M182.3,36.5h-4.1V12.8h4.1V36.5z"/>
			<linearGradient id="XMLID_14_" gradientUnits="userSpaceOnUse" x1="200.6758" y1="36.5971" x2="200.6758" y2="12.8442">
				<stop  offset="0" style="stop-color:#CCE0F4"/>
				<stop  offset="6.405089e-02" style="stop-color:#C3DCF2"/>
				<stop  offset="0.1706" style="stop-color:#A9D2EE"/>
				<stop  offset="0.3066" style="stop-color:#80C2E7"/>
				<stop  offset="0.4649" style="stop-color:#47ACDE"/>
				<stop  offset="0.5674" style="stop-color:#1E9CD7"/>
				<stop  offset="0.8652" style="stop-color:#0075BE"/>
				<stop  offset="0.9944" style="stop-color:#005B97"/>
			</linearGradient>
			<path id="XMLID_874_" class="st13" d="M216.6,36.6h-4.1v-17c0-0.8-0.3-1.4-0.8-1.9c-0.5-0.5-1.2-0.8-1.9-0.8h-1.1
				c-0.3,0-0.7,0.1-1,0.2c-1,0.6-2.1,1.8-3.3,3.9c-1.2,2-2.3,4.2-3.3,6.3c-1,2.2-1.7,3.8-2.1,4.7c-0.5,1.3-1.3,2.4-2.5,3.3
				c-1.1,0.8-2.5,1.3-3.9,1.3h-1.1c-1.9,0-3.5-0.7-4.8-2c-1.3-1.3-2-2.9-2-4.8V19.6c0.1-1.9,0.8-3.5,2.1-4.8c1.3-1.3,2.9-2,4.8-2
				h1.1c1.9,0,3.4,0.7,4.8,2c1.3,1.3,2,2.9,2.1,4.8l-0.1,0.5l-4,7.9v-8.3c0-0.8-0.3-1.4-0.8-1.9c-0.5-0.5-1.2-0.8-1.9-0.8h-1.1
				c-0.7,0-1.4,0.3-1.9,0.8c-0.5,0.5-0.8,1.2-0.8,1.9v10.2c0,0.7,0.3,1.4,0.8,1.9c0.5,0.5,1.2,0.8,1.9,0.8h1.1
				c0.6,0,1.1-0.2,1.5-0.5l0.6-0.7c0.6-0.8,1.3-1.9,2.1-3.6c0.5-1,1-2,1.5-3.1c1-2,1.7-3.6,2.4-4.8c0.3-0.6,0.7-1.3,1.1-1.9l0.1-5.1
				h4.1v0.6c0.8-0.4,1.8-0.6,2.7-0.6h1.1c1.9,0,3.4,0.7,4.7,2c1.3,1.3,2,2.9,2,4.8V36.6z M206,36.6H202l0-8h4V36.6z"/>
		</g>
		<g id="XMLID_887_">
			<linearGradient id="XMLID_15_" gradientUnits="userSpaceOnUse" x1="225.5257" y1="6.8054" x2="225.5257" y2="36.4763">
				<stop  offset="0" style="stop-color:#FFF33B"/>
				<stop  offset="4.010540e-02" style="stop-color:#FEE72E"/>
				<stop  offset="0.1171" style="stop-color:#FED51B"/>
				<stop  offset="0.1964" style="stop-color:#FDCA10"/>
				<stop  offset="0.2809" style="stop-color:#FDC70C"/>
				<stop  offset="0.6685" style="stop-color:#F3903F"/>
				<stop  offset="0.8876" style="stop-color:#ED683C"/>
				<stop  offset="1" style="stop-color:#E93E3A"/>
			</linearGradient>
			<path id="XMLID_877_" class="st14" d="M223,36.5H219V6.8h13.1v4.1h-9v9.4h6.4v4.1H223V36.5z"/>
			<linearGradient id="XMLID_16_" gradientUnits="userSpaceOnUse" x1="236.5467" y1="6.8658" x2="236.5467" y2="36.5367">
				<stop  offset="0" style="stop-color:#FFF33B"/>
				<stop  offset="4.010540e-02" style="stop-color:#FEE72E"/>
				<stop  offset="0.1171" style="stop-color:#FED51B"/>
				<stop  offset="0.1964" style="stop-color:#FDCA10"/>
				<stop  offset="0.2809" style="stop-color:#FDC70C"/>
				<stop  offset="0.6685" style="stop-color:#F3903F"/>
				<stop  offset="0.8876" style="stop-color:#ED683C"/>
				<stop  offset="1" style="stop-color:#E93E3A"/>
			</linearGradient>
			<path id="XMLID_879_" class="st15" d="M238.6,10.9h-4.1V6.9h4.1V10.9z M238.6,36.5h-4.1V12.8h4.1V36.5z"/>
			<linearGradient id="XMLID_17_" gradientUnits="userSpaceOnUse" x1="246.1183" y1="12.7838" x2="246.1183" y2="36.5367">
				<stop  offset="0" style="stop-color:#FFF33B"/>
				<stop  offset="4.010540e-02" style="stop-color:#FEE72E"/>
				<stop  offset="0.1171" style="stop-color:#FED51B"/>
				<stop  offset="0.1964" style="stop-color:#FDCA10"/>
				<stop  offset="0.2809" style="stop-color:#FDC70C"/>
				<stop  offset="0.6685" style="stop-color:#F3903F"/>
				<stop  offset="0.8876" style="stop-color:#ED683C"/>
				<stop  offset="1" style="stop-color:#E93E3A"/>
			</linearGradient>
			<path id="XMLID_882_" class="st16" d="M245.1,36.5H241V12.8h4.1v2.1c0.4-0.6,0.8-1.1,1.3-1.4c0.5-0.3,0.9-0.5,1.5-0.6
				c0.5-0.1,1.1-0.1,1.7-0.1l1.7,0v4.1c-0.8,0-1.5,0-2.2,0.1c-0.7,0.1-1.4,0.2-2,0.5c-0.6,0.3-1.1,0.7-1.4,1.3
				c-0.3,0.6-0.5,1.4-0.5,2.5V36.5z"/>
			<linearGradient id="XMLID_18_" gradientUnits="userSpaceOnUse" x1="260.219" y1="12.7838" x2="260.219" y2="36.5367">
				<stop  offset="0" style="stop-color:#FFF33B"/>
				<stop  offset="4.010540e-02" style="stop-color:#FEE72E"/>
				<stop  offset="0.1171" style="stop-color:#FED51B"/>
				<stop  offset="0.1964" style="stop-color:#FDCA10"/>
				<stop  offset="0.2809" style="stop-color:#FDC70C"/>
				<stop  offset="0.6685" style="stop-color:#F3903F"/>
				<stop  offset="0.8876" style="stop-color:#ED683C"/>
				<stop  offset="1" style="stop-color:#E93E3A"/>
			</linearGradient>
			<path id="XMLID_884_" class="st17" d="M260.8,36.5h-1.1c-1.9,0-3.5-0.7-4.8-2c-1.3-1.3-2-2.9-2-4.8V19.5c0.1-1.9,0.7-3.5,2-4.8
				c1.3-1.3,2.9-2,4.8-2h1.1c1.9,0,3.4,0.7,4.8,2c1.3,1.3,2,2.9,2.1,4.8v6.7h-10.6v3.5c0,0.7,0.3,1.4,0.8,1.9
				c0.5,0.5,1.2,0.8,1.9,0.8h1.1c0.8,0,1.4-0.3,1.9-0.8c0.5-0.5,0.8-1.2,0.8-1.9v-1.7h4.1v1.6c0,1.9-0.7,3.5-2,4.8
				C264.3,35.9,262.7,36.5,260.8,36.5z M263.5,22.2v-2.6c0-0.7-0.3-1.4-0.8-1.9c-0.5-0.5-1.2-0.8-1.9-0.8h-1.1
				c-0.8,0-1.4,0.3-1.9,0.8c-0.5,0.5-0.8,1.2-0.8,1.9v2.6H263.5z"/>
		</g>
	</g>
</g>
</svg>
